<svg xmlns="http://www.w3.org/2000/svg" viewBox="0 0 33 33" shape-rendering="crispEdges" xmlns:xlink="http://www.w3.org/1999/xlink"><path fill="#ffffff" d="M0 0h33v33H0z"/><path stroke="#000000" d="M2 2.5h7m2 0h1m1 0h1m2 0h1m2 0h2m1 0h1m1 0h7M2 3.5h1m5 0h1m1 0h1m1 0h2m1 0h1m5 0h1m2 0h1m5 0h1M2 4.5h1m1 0h3m1 0h1m5 0h1m2 0h1m3 0h2m1 0h1m1 0h3m1 0h1M2 5.5h1m1 0h3m1 0h1m2 0h5m3 0h2m1 0h1m1 0h1m1 0h3m1 0h1M2 6.5h1m1 0h3m1 0h1m1 0h1m1 0h2m1 0h1m2 0h1m1 0h1m1 0h1m1 0h1m1 0h3m1 0h1M2 7.5h1m5 0h1m4 0h2m1 0h2m1 0h1m1 0h1m2 0h1m5 0h1M2 8.5h7m1 0h1m1 0h1m1 0h1m1 0h1m1 0h1m1 0h1m1 0h1m1 0h7M13 9.5h1m5 0h2m1 0h1M2 10.5h1m1 0h1m1 0h1m1 0h1m3 0h1m1 0h1m4 0h1m6 0h1m2 0h1M2 11.5h3m2 0h1m1 0h1m1 0h3m1 0h1m1 0h2m1 0h5m2 0h1m2 0h1M4 12.5h1m1 0h1m1 0h1m1 0h1m3 0h1m1 0h1m1 0h2m2 0h2m1 0h1m2 0h3M3 13.5h1m1 0h2m3 0h4m1 0h2m3 0h2m3 0h2m2 0h1M2 14.5h1m1 0h1m1 0h4m4 0h1m1 0h1m5 0h3m2 0h1m1 0h2M2 15.5h1m1 0h3m3 0h3m3 0h5m2 0h2m2 0h1m2 0h1M2 16.5h2m1 0h7m3 0h1m2 0h1m1 0h1m1 0h4m1 0h1m1 0h2M9 17.5h1m1 0h1m1 0h1m3 0h1m1 0h1m1 0h1m1 0h1m1 0h1m1 0h1m1 0h1M2 18.5h3m3 0h1m2 0h2m4 0h4m1 0h1m1 0h1m2 0h1m1 0h2M3 19.5h1m11 0h1m1 0h8m2 0h2m1 0h1M2 20.5h1m1 0h2m2 0h1m2 0h2m1 0h1m1 0h1m2 0h1m3 0h1m1 0h2m2 0h2M3 21.5h2m2 0h1m1 0h4m2 0h2m1 0h1m3 0h4m1 0h1m1 0h1M2 22.5h1m2 0h2m1 0h3m1 0h3m1 0h3m2 0h6M10 23.5h1m5 0h1m1 0h2m1 0h2m3 0h1m1 0h3M2 24.5h7m5 0h2m5 0h2m1 0h1m1 0h2m1 0h2M2 25.5h1m5 0h1m2 0h1m1 0h2m2 0h1m1 0h1m1 0h2m3 0h2m2 0h1M2 26.5h1m1 0h3m1 0h1m1 0h1m1 0h2m6 0h1m1 0h5m3 0h1M2 27.5h1m1 0h3m1 0h1m3 0h2m1 0h1m2 0h2m2 0h1m2 0h2m1 0h1M2 28.5h1m1 0h3m1 0h1m1 0h2m1 0h4m2 0h1m1 0h1m3 0h3m2 0h1M2 29.5h1m5 0h1m3 0h2m1 0h1m1 0h1m1 0h1m1 0h5m3 0h1M2 30.5h7m1 0h1m2 0h3m1 0h3m1 0h4m4 0h2"/></svg>