<?xml version="1.0" standalone="no" ?>
<!DOCTYPE svg PUBLIC "-//W3C//DTD SVG 1.1//EN" "http://www.w3.org/Graphics/SVG/1.1/DTD/svg11.dtd">
<svg width="298px" height="371px" viewBox="0 0 298 371" style="background-color: #ffffff00" xmlns="http://www.w3.org/2000/svg" xmlns:xlink="http://www.w3.org/1999/xlink" version="1.1" >
<path stroke="none" fill="#000000" transform="matrix(0.0666667 0 0 0.0666667 -131.433 -81)" d="M 2026.57,2537.7 L 2014.57,2544.63 L 2014.57,2249.7 L 2026.57,2256.63 L 2026.57,2537.7 Z " />
<path stroke="none" fill="#000000" transform="matrix(0.0666667 0 0 0.0666667 -131.433 -81)" d="M 2078.41,2511.23 L 2066.41,2511.23 L 2066.41,2283.09 L 2078.41,2283.09 L 2078.41,2511.23 Z " />
<path stroke="none" fill="#000000" transform="matrix(0.0666667 0 0 0.0666667 -131.433 -81)" d="M 2269.98,2678.24 L 2269.98,2692.09 L 2014.57,2544.63 L 2026.57,2537.7 L 2269.98,2678.24 Z " />
<path stroke="none" fill="#000000" transform="matrix(0.0666667 0 0 0.0666667 -131.433 -81)" d="M 2513.4,2537.7 L 2525.4,2544.63 L 2269.98,2692.09 L 2269.98,2678.24 L 2513.4,2537.7 Z " />
<path stroke="none" fill="#000000" transform="matrix(0.0666667 0 0 0.0666667 -131.433 -81)" d="M 2464.56,2506.04 L 2470.56,2516.43 L 2272.98,2630.5 L 2266.98,2620.11 L 2464.56,2506.04 Z " />
<path stroke="none" fill="#000000" transform="matrix(0.0666667 0 0 0.0666667 -131.433 -81)" d="M 2513.4,2256.63 L 2525.4,2249.7 L 2525.4,2544.63 L 2513.4,2537.7 L 2513.4,2256.63 Z " />
<path stroke="none" fill="#000000" transform="matrix(0.0666667 0 0 0.0666667 -131.433 -81)" d="M 2269.98,2116.09 L 2269.98,2109.16 L 2275.98,2105.7 L 2525.4,2249.7 L 2513.4,2256.63 L 2269.98,2116.09 Z " />
<path stroke="none" fill="#000000" transform="matrix(0.0666667 0 0 0.0666667 -131.433 -81)" d="M 2266.98,2174.22 L 2272.98,2163.83 L 2470.56,2277.9 L 2464.56,2288.29 L 2266.98,2174.22 Z " />
<path stroke="none" fill="#000000" transform="matrix(0.0666667 0 0 0.0666667 -131.433 -81)" d="M 2026.57,2256.63 L 2014.57,2249.7 L 2263.98,2105.7 L 2269.98,2109.16 L 2269.98,2116.09 L 2026.57,2256.63 Z " />
<path stroke="none" fill="#000000" transform="matrix(0.0666667 0 0 0.0666667 -131.433 -81)" d="M 2263.98,1817.7 L 2275.98,1824.63 L 2275.98,2105.7 L 2269.98,2109.16 L 2263.98,2105.7 L 2263.98,1817.7 Z " />
<path stroke="none" fill="#000000" transform="matrix(0.0666667 0 0 0.0666667 -131.433 -81)" d="M 2516.4,1671.97 L 2522.4,1682.36 L 2275.98,1824.63 L 2263.98,1817.7 L 2516.4,1671.97 Z " />
<path stroke="none" fill="#000000" transform="matrix(0.0666667 0 0 0.0666667 -131.433 -81)" d="M 2542.32,1716.86 L 2548.32,1727.26 L 2324.82,1856.29 L 2318.82,1845.9 L 2542.32,1716.86 Z " />
<text x="0" y="0" stroke="none" fill="#000000" transform="matrix(0.0666667 0 0 0.0666667 59.0856 75.9075)" font-style="normal" font-weight="normal" font-size="200px" font-family="Arial" >
O</text>
<text x="0" y="0" stroke="none" fill="#000000" transform="matrix(0.0666667 0 0 0.0666667 92.341 75.9075)" font-style="normal" font-weight="normal" font-size="200px" font-family="Arial" >
O</text>
<path stroke="none" fill="#000000" transform="matrix(0.0666667 0 0 0.0666667 -131.433 -81)" d="M 2941.57,2563.61 L 2929.57,2563.61 L 2929.57,2387.45 L 2941.57,2387.45 L 2941.57,2563.61 Z " />
<path stroke="none" fill="#000000" transform="matrix(0.0666667 0 0 0.0666667 -131.433 -81)" d="M 3156.06,2151.77 L 3162.06,2141.38 L 3338.91,2243.48 L 3332.91,2253.88 L 3156.06,2151.77 Z " />
<path stroke="none" fill="#000000" transform="matrix(0.0666667 0 0 0.0666667 -131.433 -81)" d="M 3181.98,2106.88 L 3187.98,2096.49 L 3364.83,2198.59 L 3358.83,2208.98 L 3181.98,2106.88 Z " />
<path stroke="none" fill="#000000" transform="matrix(0.0666667 0 0 0.0666667 -131.433 -81)" d="M 3024.42,2231.24 L 3018.42,2220.85 L 3178.98,2128.15 L 3190.98,2135.08 L 3024.42,2231.24 Z " />
<path stroke="none" fill="#000000" transform="matrix(0.0666667 0 0 0.0666667 -131.433 -81)" d="M 3178.98,1847.08 L 3190.98,1840.15 L 3190.98,2135.08 L 3178.98,2128.15 L 3178.98,1847.08 Z " />
<path stroke="none" fill="#000000" transform="matrix(0.0666667 0 0 0.0666667 -131.433 -81)" d="M 3418.44,1671.97 L 3424.44,1682.36 L 3162.06,1833.84 L 3156.06,1823.45 L 3418.44,1671.97 Z " />
<path stroke="none" fill="#000000" transform="matrix(0.0666667 0 0 0.0666667 -131.433 -81)" d="M 3444.36,1716.86 L 3450.36,1727.26 L 3187.98,1878.74 L 3181.98,1868.35 L 3444.36,1716.86 Z " />
<text x="0" y="0" stroke="none" fill="#000000" transform="matrix(0.0666667 0 0 0.0666667 117.086 74.411)" font-style="normal" font-weight="normal" font-size="200px" font-family="Arial" >
O</text>
<text x="0" y="0" stroke="none" fill="#000000" transform="matrix(0.0666667 0 0 0.0666667 150.341 74.411)" font-style="normal" font-weight="normal" font-size="200px" font-family="Arial" >
O</text>
<path stroke="none" fill="#000000" transform="matrix(0.0666667 0 0 0.0666667 -131.433 -81)" d="M 3811.57,2541.16 L 3799.57,2541.16 L 3799.57,2365 L 3811.57,2365 L 3811.57,2541.16 Z " />
<path stroke="none" fill="#000000" transform="matrix(0.0666667 0 0 0.0666667 -131.433 -81)" d="M 4026.06,2129.33 L 4032.06,2118.93 L 4208.91,2221.04 L 4202.91,2231.43 L 4026.06,2129.33 Z " />
<path stroke="none" fill="#000000" transform="matrix(0.0666667 0 0 0.0666667 -131.433 -81)" d="M 4051.98,2084.43 L 4057.98,2074.04 L 4234.83,2176.14 L 4228.83,2186.53 L 4051.98,2084.43 Z " />
<path stroke="none" fill="#000000" transform="matrix(0.0666667 0 0 0.0666667 -131.433 -81)" d="M 3894.42,2208.79 L 3888.42,2198.4 L 4048.98,2105.7 L 4060.98,2112.63 L 3894.42,2208.79 Z " />
<path stroke="none" fill="#000000" transform="matrix(0.0666667 0 0 0.0666667 -131.433 -81)" d="M 4048.98,1817.7 L 4060.98,1824.63 L 4060.98,2112.63 L 4048.98,2105.7 L 4048.98,1817.7 Z " />
<path stroke="none" fill="#000000" transform="matrix(0.0666667 0 0 0.0666667 -131.433 -81)" d="M 4301.4,1671.97 L 4307.4,1682.36 L 4060.98,1824.63 L 4048.98,1817.7 L 4301.4,1671.97 Z " />
<path stroke="none" fill="#000000" transform="matrix(0.0666667 0 0 0.0666667 -131.433 -81)" d="M 4327.32,1716.86 L 4333.32,1727.26 L 4109.82,1856.29 L 4103.82,1845.9 L 4327.32,1716.86 Z " />
<text x="0" y="0" stroke="none" fill="#000000" transform="matrix(0.0666667 0 0 0.0666667 181.713 64.811)" font-style="normal" font-weight="normal" font-size="200px" font-family="Arial" >
O</text>
<path stroke="none" fill="#000000" transform="matrix(0.0666667 0 0 0.0666667 -131.433 -81)" d="M 5018.4,2256.63 L 5030.4,2249.7 L 5030.4,2541.16 L 5018.4,2541.16 L 5018.4,2256.63 Z " />
<path stroke="none" fill="#000000" transform="matrix(0.0666667 0 0 0.0666667 -131.433 -81)" d="M 4865.25,2168.21 L 4871.25,2157.82 L 5030.4,2249.7 L 5018.4,2256.63 L 4865.25,2168.21 Z " />
<path stroke="none" fill="#000000" transform="matrix(0.0666667 0 0 0.0666667 -131.433 -81)" d="M 4768.98,1817.7 L 4780.98,1824.63 L 4780.98,2012 L 4768.98,2012 L 4768.98,1817.7 Z " />
<path stroke="none" fill="#000000" transform="matrix(0.0666667 0 0 0.0666667 -131.433 -81)" d="M 5021.4,1671.97 L 5027.4,1682.36 L 4780.98,1824.63 L 4768.98,1817.7 L 5021.4,1671.97 Z " />
<path stroke="none" fill="#000000" transform="matrix(0.0666667 0 0 0.0666667 -131.433 -81)" d="M 5047.32,1716.86 L 5053.32,1727.26 L 4829.82,1856.29 L 4823.82,1845.9 L 5047.32,1716.86 Z " />
<path stroke="none" fill="#000000" transform="matrix(0.0666667 0 0 0.0666667 -131.433 -81)" d="M 5833.98,1817.7 L 5845.98,1824.63 L 5845.98,2109.16 L 5833.98,2109.16 L 5833.98,1817.7 Z " />
<path stroke="none" fill="#000000" transform="matrix(0.0666667 0 0 0.0666667 -131.433 -81)" d="M 6086.4,1671.97 L 6092.4,1682.36 L 5845.98,1824.63 L 5833.98,1817.7 L 6086.4,1671.97 Z " />
<path stroke="none" fill="#000000" transform="matrix(0.0666667 0 0 0.0666667 -131.433 -81)" d="M 6112.32,1716.86 L 6118.32,1727.26 L 5894.82,1856.29 L 5888.82,1845.9 L 6112.32,1716.86 Z " />
<path stroke="none" fill="#000000" transform="matrix(0.0666667 0 0 0.0666667 -131.433 -81)" d="M 2932.57,1704.81 L 2938.57,1694.42 L 3190.98,1840.15 L 3178.98,1847.08 L 2932.57,1704.81 Z " />
<text x="0" y="0" stroke="none" fill="#000000" transform="matrix(0.0666667 0 0 0.0666667 214.969 64.811)" font-style="normal" font-weight="normal" font-size="200px" font-family="Arial" >
O</text>
<path stroke="none" fill="#000000" transform="matrix(0.0666667 0 0 0.0666667 -131.433 -81)" d="M 5165.34,2134.93 L 5171.34,2145.33 L 5001.48,2243.4 L 4995.48,2233 L 5165.34,2134.93 Z " />
<path stroke="none" fill="#000000" transform="matrix(0.0666667 0 0 0.0666667 -131.433 -81)" d="M 5191.26,2179.83 L 5197.26,2190.22 L 5027.4,2288.29 L 5021.4,2277.9 L 5191.26,2179.83 Z " />
<text x="0" y="0" stroke="none" fill="#000000" transform="matrix(0.0666667 0 0 0.0666667 20.0667 15)" font-style="normal" font-weight="bold" font-size="200px" font-family="Arial" >
St </text>
<text x="0" y="0" stroke="none" fill="#000000" transform="matrix(0.0666667 0 0 0.0666667 37.1044 15)" font-style="normal" font-weight="bold" font-size="200px" font-family="Arial" >
 </text>
<text x="0" y="0" stroke="none" fill="#000000" transform="matrix(0.0666667 0 0 0.0666667 40.8089 15)" font-style="normal" font-weight="bold" font-size="200px" font-family="Arial" >
 </text>
<text x="0" y="0" stroke="none" fill="#000000" transform="matrix(0.0666667 0 0 0.0666667 44.5133 15)" font-style="normal" font-weight="bold" font-size="200px" font-family="Arial" >
 </text>
<text x="0" y="0" stroke="none" fill="#000000" transform="matrix(0.0666667 0 0 0.0666667 48.2177 15)" font-style="normal" font-weight="bold" font-size="200px" font-family="Arial" >
 </text>
<text x="0" y="0" stroke="none" fill="#000000" transform="matrix(0.0666667 0 0 0.0666667 51.9221 15)" font-style="normal" font-weight="bold" font-size="200px" font-family="Arial" >
 </text>
<text x="0" y="0" stroke="none" fill="#000000" transform="matrix(0.0666667 0 0 0.0666667 55.6266 15)" font-style="normal" font-weight="bold" font-size="200px" font-family="Arial" >
 </text>
<text x="0" y="0" stroke="none" fill="#000000" transform="matrix(0.0666667 0 0 0.0666667 59.331 15)" font-style="normal" font-weight="bold" font-size="200px" font-family="Arial" >
 </text>
<text x="0" y="0" stroke="none" fill="#000000" transform="matrix(0.0666667 0 0 0.0666667 63.0354 15)" font-style="normal" font-weight="bold" font-size="200px" font-family="Arial" >
 </text>
<text x="0" y="0" stroke="none" fill="#000000" transform="matrix(0.0666667 0 0 0.0666667 66.7398 15)" font-style="normal" font-weight="bold" font-size="200px" font-family="Arial" >
MMA </text>
<text x="0" y="0" stroke="none" fill="#000000" transform="matrix(0.0666667 0 0 0.0666667 102.287 15)" font-style="normal" font-weight="bold" font-size="200px" font-family="Arial" >
 </text>
<text x="0" y="0" stroke="none" fill="#000000" transform="matrix(0.0666667 0 0 0.0666667 105.991 15)" font-style="normal" font-weight="bold" font-size="200px" font-family="Arial" >
 </text>
<text x="0" y="0" stroke="none" fill="#000000" transform="matrix(0.0666667 0 0 0.0666667 109.696 15)" font-style="normal" font-weight="bold" font-size="200px" font-family="Arial" >
 </text>
<text x="0" y="0" stroke="none" fill="#000000" transform="matrix(0.0666667 0 0 0.0666667 113.4 15)" font-style="normal" font-weight="bold" font-size="200px" font-family="Arial" >
 </text>
<text x="0" y="0" stroke="none" fill="#000000" transform="matrix(0.0666667 0 0 0.0666667 117.104 15)" font-style="normal" font-weight="bold" font-size="200px" font-family="Arial" >
 </text>
<text x="0" y="0" stroke="none" fill="#000000" transform="matrix(0.0666667 0 0 0.0666667 120.809 15)" font-style="normal" font-weight="bold" font-size="200px" font-family="Arial" >
 </text>
<text x="0" y="0" stroke="none" fill="#000000" transform="matrix(0.0666667 0 0 0.0666667 124.513 15)" font-style="normal" font-weight="bold" font-size="200px" font-family="Arial" >
 </text>
<text x="0" y="0" stroke="none" fill="#000000" transform="matrix(0.0666667 0 0 0.0666667 128.218 15)" font-style="normal" font-weight="bold" font-size="200px" font-family="Arial" >
 </text>
<text x="0" y="0" stroke="none" fill="#000000" transform="matrix(0.0666667 0 0 0.0666667 131.922 15)" font-style="normal" font-weight="bold" font-size="200px" font-family="Arial" >
MA </text>
<text x="0" y="0" stroke="none" fill="#000000" transform="matrix(0.0666667 0 0 0.0666667 156.362 15)" font-style="normal" font-weight="bold" font-size="200px" font-family="Arial" >
 </text>
<text x="0" y="0" stroke="none" fill="#000000" transform="matrix(0.0666667 0 0 0.0666667 160.067 15)" font-style="normal" font-weight="bold" font-size="200px" font-family="Arial" >
 </text>
<text x="0" y="0" stroke="none" fill="#000000" transform="matrix(0.0666667 0 0 0.0666667 163.771 15)" font-style="normal" font-weight="bold" font-size="200px" font-family="Arial" >
 </text>
<text x="0" y="0" stroke="none" fill="#000000" transform="matrix(0.0666667 0 0 0.0666667 167.476 15)" font-style="normal" font-weight="bold" font-size="200px" font-family="Arial" >
 </text>
<text x="0" y="0" stroke="none" fill="#000000" transform="matrix(0.0666667 0 0 0.0666667 171.18 15)" font-style="normal" font-weight="bold" font-size="200px" font-family="Arial" >
 </text>
<text x="0" y="0" stroke="none" fill="#000000" transform="matrix(0.0666667 0 0 0.0666667 174.884 15)" font-style="normal" font-weight="bold" font-size="200px" font-family="Arial" >
 </text>
<text x="0" y="0" stroke="none" fill="#000000" transform="matrix(0.0666667 0 0 0.0666667 178.589 15)" font-style="normal" font-weight="bold" font-size="200px" font-family="Arial" >
 </text>
<text x="0" y="0" stroke="none" fill="#000000" transform="matrix(0.0666667 0 0 0.0666667 182.293 15)" font-style="normal" font-weight="bold" font-size="200px" font-family="Arial" >
 </text>
<text x="0" y="0" stroke="none" fill="#000000" transform="matrix(0.0666667 0 0 0.0666667 185.998 15)" font-style="normal" font-weight="bold" font-size="200px" font-family="Arial" >
VAc </text>
<text x="0" y="0" stroke="none" fill="#000000" transform="matrix(0.0666667 0 0 0.0666667 215.64 15)" font-style="normal" font-weight="bold" font-size="200px" font-family="Arial" >
 </text>
<text x="0" y="0" stroke="none" fill="#000000" transform="matrix(0.0666667 0 0 0.0666667 219.344 15)" font-style="normal" font-weight="bold" font-size="200px" font-family="Arial" >
 </text>
<text x="0" y="0" stroke="none" fill="#000000" transform="matrix(0.0666667 0 0 0.0666667 223.048 15)" font-style="normal" font-weight="bold" font-size="200px" font-family="Arial" >
 </text>
<text x="0" y="0" stroke="none" fill="#000000" transform="matrix(0.0666667 0 0 0.0666667 226.753 15)" font-style="normal" font-weight="bold" font-size="200px" font-family="Arial" >
 </text>
<text x="0" y="0" stroke="none" fill="#000000" transform="matrix(0.0666667 0 0 0.0666667 230.457 15)" font-style="normal" font-weight="bold" font-size="200px" font-family="Arial" >
 </text>
<text x="0" y="0" stroke="none" fill="#000000" transform="matrix(0.0666667 0 0 0.0666667 234.162 15)" font-style="normal" font-weight="bold" font-size="200px" font-family="Arial" >
 </text>
<text x="0" y="0" stroke="none" fill="#000000" transform="matrix(0.0666667 0 0 0.0666667 237.866 15)" font-style="normal" font-weight="bold" font-size="200px" font-family="Arial" >
 </text>
<text x="0" y="0" stroke="none" fill="#000000" transform="matrix(0.0666667 0 0 0.0666667 241.571 15)" font-style="normal" font-weight="bold" font-size="200px" font-family="Arial" >
 </text>
<text x="0" y="0" stroke="none" fill="#000000" transform="matrix(0.0666667 0 0 0.0666667 245.275 15)" font-style="normal" font-weight="bold" font-size="200px" font-family="Arial" >
 </text>
<text x="0" y="0" stroke="none" fill="#000000" transform="matrix(0.0666667 0 0 0.0666667 248.979 15)" font-style="normal" font-weight="bold" font-size="200px" font-family="Arial" >
 </text>
<text x="0" y="0" stroke="none" fill="#000000" transform="matrix(0.0666667 0 0 0.0666667 252.684 15)" font-style="normal" font-weight="bold" font-size="200px" font-family="Arial" >
 </text>
<text x="0" y="0" stroke="none" fill="#000000" transform="matrix(0.0666667 0 0 0.0666667 256.388 15)" font-style="normal" font-weight="bold" font-size="200px" font-family="Arial" >
AN</text>
<text x="0" y="0" stroke="none" fill="#000000" transform="matrix(0.0666667 0 0 0.0666667 54.8799 154.662)" font-style="normal" font-weight="normal" font-size="200px" font-family="Arial" >
N</text>
<path stroke="none" fill="#000000" transform="matrix(0.0666667 0 0 0.0666667 -131.433 -81)" d="M 2761.06,3511.12 L 2767.06,3521.51 L 2623.5,3604.39 L 2617.5,3600.93 L 2623.5,3590.54 L 2761.06,3511.12 Z " />
<path stroke="none" fill="#000000" transform="matrix(0.0666667 0 0 0.0666667 -131.433 -81)" d="M 2623.5,3888.93 L 2611.5,3888.93 L 2611.5,3604.39 L 2617.5,3600.93 L 2623.5,3604.39 L 2623.5,3888.93 Z " />
<path stroke="none" fill="#000000" transform="matrix(0.0666667 0 0 0.0666667 -131.433 -81)" d="M 2365.08,3462.12 L 2371.08,3451.73 L 2611.5,3590.54 L 2617.5,3600.93 L 2611.5,3604.39 L 2365.08,3462.12 Z " />
<text x="0" y="0" stroke="none" fill="#000000" transform="matrix(0.0666667 0 0 0.0666667 71.5076 164.262)" font-style="normal" font-weight="normal" font-size="200px" font-family="Arial" >
N</text>
<path stroke="none" fill="#000000" transform="matrix(0.0666667 0 0 0.0666667 -131.433 -81)" d="M 3022.25,3539.68 L 3016.25,3550.07 L 2966.01,3521.07 L 2972.01,3510.68 L 3022.25,3539.68 Z " />
<path stroke="none" fill="#000000" transform="matrix(0.0666667 0 0 0.0666667 -131.433 -81)" d="M 3048.17,3494.79 L 3042.17,3505.18 L 2991.93,3476.18 L 2997.93,3465.78 L 3048.17,3494.79 Z " />
<path stroke="none" fill="#000000" transform="matrix(0.0666667 0 0 0.0666667 -131.433 -81)" d="M 3359.75,3453.46 L 3365.75,3456.93 L 3365.75,3463.86 L 3216.09,3550.26 L 3210.09,3539.87 L 3359.75,3453.46 Z " />
<path stroke="none" fill="#000000" transform="matrix(0.0666667 0 0 0.0666667 -131.433 -81)" d="M 3359.75,3168.93 L 3371.75,3168.93 L 3371.75,3446.54 L 3365.75,3456.93 L 3359.75,3453.46 L 3359.75,3168.93 Z " />
<path stroke="none" fill="#000000" transform="matrix(0.0666667 0 0 0.0666667 -131.433 -81)" d="M 3618.16,3595.73 L 3612.16,3606.12 L 3365.75,3463.86 L 3365.75,3456.93 L 3377.75,3456.93 L 3618.16,3595.73 Z " />
<path stroke="none" fill="#000000" transform="matrix(0.0666667 0 0 0.0666667 -131.433 -81)" d="M 3612.16,3307.73 L 3618.16,3318.12 L 3377.75,3456.93 L 3365.75,3456.93 L 3371.75,3446.54 L 3612.16,3307.73 Z " />
<text x="0" y="0" stroke="none" fill="#000000" transform="matrix(0.0666667 0 0 0.0666667 50.8799 261.6)" font-style="normal" font-weight="normal" font-size="200px" font-family="Arial" >
N</text>
<path stroke="none" fill="#000000" transform="matrix(0.0666667 0 0 0.0666667 -131.433 -81)" d="M 2701.06,5115.19 L 2707.06,5125.58 L 2563.5,5208.46 L 2557.5,5205 L 2563.5,5194.61 L 2701.06,5115.19 Z " />
<path stroke="none" fill="#000000" transform="matrix(0.0666667 0 0 0.0666667 -131.433 -81)" d="M 2563.5,5496.46 L 2551.5,5489.54 L 2551.5,5208.46 L 2557.5,5205 L 2563.5,5208.46 L 2563.5,5496.46 Z " />
<path stroke="none" fill="#000000" transform="matrix(0.0666667 0 0 0.0666667 -131.433 -81)" d="M 2308.08,5067.93 L 2308.08,5054.07 L 2551.5,5194.61 L 2557.5,5205 L 2551.5,5208.46 L 2308.08,5067.93 Z " />
<path stroke="none" fill="#000000" transform="matrix(0.0666667 0 0 0.0666667 -131.433 -81)" d="M 2551.5,4917 L 2563.5,4917 L 2563.5,5194.61 L 2557.5,5205 L 2551.5,5194.61 L 2551.5,4917 Z " />
<text x="0" y="0" stroke="none" fill="#000000" transform="matrix(0.0666667 0 0 0.0666667 67.5076 271.2)" font-style="normal" font-weight="normal" font-size="200px" font-family="Arial" >
N</text>
<path stroke="none" fill="#000000" transform="matrix(0.0666667 0 0 0.0666667 -131.433 -81)" d="M 2962.25,5143.75 L 2956.25,5154.15 L 2906.01,5125.14 L 2912.01,5114.75 L 2962.25,5143.75 Z " />
<path stroke="none" fill="#000000" transform="matrix(0.0666667 0 0 0.0666667 -131.433 -81)" d="M 2988.17,5098.86 L 2982.17,5109.25 L 2931.93,5080.25 L 2937.93,5069.86 L 2988.17,5098.86 Z " />
<path stroke="none" fill="#000000" transform="matrix(0.0666667 0 0 0.0666667 -131.433 -81)" d="M 3299.75,5057.54 L 3305.75,5061 L 3299.75,5071.39 L 3156.09,5154.33 L 3150.09,5143.94 L 3299.75,5057.54 Z " />
<path stroke="none" fill="#000000" transform="matrix(0.0666667 0 0 0.0666667 -131.433 -81)" d="M 3299.75,4769.54 L 3311.75,4776.46 L 3311.75,5057.54 L 3305.75,5061 L 3299.75,5057.54 L 3299.75,4769.54 Z " />
<path stroke="none" fill="#000000" transform="matrix(0.0666667 0 0 0.0666667 -131.433 -81)" d="M 3555.16,5198.07 L 3555.16,5211.93 L 3311.75,5071.39 L 3305.75,5061 L 3311.75,5057.54 L 3555.16,5198.07 Z " />
<path stroke="none" fill="#000000" transform="matrix(0.0666667 0 0 0.0666667 -131.433 -81)" d="M 2064.67,5208.46 L 2052.67,5201.54 L 2308.08,5054.07 L 2308.08,5067.93 L 2064.67,5208.46 Z " />
<path stroke="none" fill="#000000" transform="matrix(0.0666667 0 0 0.0666667 -131.433 -81)" d="M 2064.67,5489.54 L 2052.67,5496.46 L 2052.67,5201.54 L 2064.67,5208.46 L 2064.67,5489.54 Z " />
<path stroke="none" fill="#000000" transform="matrix(0.0666667 0 0 0.0666667 -131.433 -81)" d="M 2308.08,5630.07 L 2308.08,5643.93 L 2052.67,5496.46 L 2064.67,5489.54 L 2308.08,5630.07 Z " />
<path stroke="none" fill="#000000" transform="matrix(0.0666667 0 0 0.0666667 -131.433 -81)" d="M 2551.5,5489.54 L 2563.5,5496.46 L 2308.08,5643.93 L 2308.08,5630.07 L 2551.5,5489.54 Z " />
<path stroke="none" fill="#000000" transform="matrix(0.0666667 0 0 0.0666667 -131.433 -81)" d="M 3798.58,5057.54 L 3810.58,5064.46 L 3555.16,5211.93 L 3555.16,5198.07 L 3798.58,5057.54 Z " />
<path stroke="none" fill="#000000" transform="matrix(0.0666667 0 0 0.0666667 -131.433 -81)" d="M 3798.58,4776.46 L 3810.58,4769.54 L 3810.58,5064.46 L 3798.58,5057.54 L 3798.58,4776.46 Z " />
<path stroke="none" fill="#000000" transform="matrix(0.0666667 0 0 0.0666667 -131.433 -81)" d="M 3555.16,4635.93 L 3555.16,4622.07 L 3810.58,4769.54 L 3798.58,4776.46 L 3555.16,4635.93 Z " />
<path stroke="none" fill="#000000" transform="matrix(0.0666667 0 0 0.0666667 -131.433 -81)" d="M 3311.75,4776.46 L 3299.75,4769.54 L 3555.16,4622.07 L 3555.16,4635.93 L 3311.75,4776.46 Z " />
<path stroke="none" fill="#000000" transform="matrix(0.0666667 0 0 0.0666667 -131.433 -81)" d="M 3311.75,5349 L 3299.75,5349 L 3299.75,5071.39 L 3305.75,5061 L 3311.75,5071.39 L 3311.75,5349 Z " />
<text x="0" y="0" stroke="none" fill="#000000" transform="matrix(0.0666667 0 0 0.0666667 34.2522 232.8)" font-style="normal" font-weight="normal" font-size="200px" font-family="Arial" >
N</text>
<path stroke="none" fill="#000000" transform="matrix(0.0666667 0 0 0.0666667 -131.433 -81)" d="M 2499.66,4738.17 L 2511.66,4738.17 L 2511.66,4917 L 2499.66,4917 L 2499.66,4738.17 Z " />
<path stroke="none" fill="#000000" transform="matrix(0.0666667 0 0 0.0666667 -131.433 -81)" d="M 2551.5,4738.17 L 2563.5,4738.17 L 2563.5,4917 L 2551.5,4917 L 2551.5,4738.17 Z " />
<path stroke="none" fill="#000000" transform="matrix(0.0666667 0 0 0.0666667 -131.433 -81)" d="M 2603.34,4738.17 L 2615.34,4738.17 L 2615.34,4917 L 2603.34,4917 L 2603.34,4738.17 Z " />
<text x="0" y="0" stroke="none" fill="#000000" transform="matrix(0.0666667 0 0 0.0666667 84.1353 300)" font-style="normal" font-weight="normal" font-size="200px" font-family="Arial" >
N</text>
<path stroke="none" fill="#000000" transform="matrix(0.0666667 0 0 0.0666667 -131.433 -81)" d="M 3363.59,5542.17 L 3351.59,5542.17 L 3351.59,5349 L 3363.59,5349 L 3363.59,5542.17 Z " />
<path stroke="none" fill="#000000" transform="matrix(0.0666667 0 0 0.0666667 -131.433 -81)" d="M 3311.75,5542.17 L 3299.75,5542.17 L 3299.75,5349 L 3311.75,5349 L 3311.75,5542.17 Z " />
<path stroke="none" fill="#000000" transform="matrix(0.0666667 0 0 0.0666667 -131.433 -81)" d="M 3259.91,5542.17 L 3247.91,5542.17 L 3247.91,5349 L 3259.91,5349 L 3259.91,5542.17 Z " />
<text x="0" y="0" stroke="none" fill="#000000" transform="matrix(0.0666667 0 0 0.0666667 121.391 173.862)" font-style="normal" font-weight="normal" font-size="200px" font-family="Arial" >
N</text>
<path stroke="none" fill="#000000" transform="matrix(0.0666667 0 0 0.0666667 -131.433 -81)" d="M 3796.41,3638.79 L 3790.41,3649.18 L 3638.08,3561.23 L 3644.08,3550.84 L 3796.41,3638.79 Z " />
<path stroke="none" fill="#000000" transform="matrix(0.0666667 0 0 0.0666667 -131.433 -81)" d="M 3770.49,3683.68 L 3764.49,3694.07 L 3612.16,3606.12 L 3618.16,3595.73 L 3770.49,3683.68 Z " />
<path stroke="none" fill="#000000" transform="matrix(0.0666667 0 0 0.0666667 -131.433 -81)" d="M 3744.57,3728.58 L 3738.57,3738.97 L 3586.24,3651.02 L 3592.24,3640.63 L 3744.57,3728.58 Z " />
<text x="0" y="0" stroke="none" fill="#000000" transform="matrix(0.0666667 0 0 0.0666667 4.99685 145.062)" font-style="normal" font-weight="normal" font-size="200px" font-family="Arial" >
N</text>
<path stroke="none" fill="#000000" transform="matrix(0.0666667 0 0 0.0666667 -131.433 -81)" d="M 2191.85,3421.97 L 2197.85,3411.57 L 2345.16,3496.63 L 2339.16,3507.02 L 2191.85,3421.97 Z " />
<path stroke="none" fill="#000000" transform="matrix(0.0666667 0 0 0.0666667 -131.433 -81)" d="M 2217.77,3377.07 L 2223.77,3366.68 L 2371.08,3451.73 L 2365.08,3462.12 L 2217.77,3377.07 Z " />
<path stroke="none" fill="#000000" transform="matrix(0.0666667 0 0 0.0666667 -131.433 -81)" d="M 2243.69,3332.18 L 2249.69,3321.78 L 2397,3406.84 L 2391,3417.23 L 2243.69,3332.18 Z " />
<path stroke="none" fill="#000000" transform="matrix(0.0666667 0 0 0.0666667 -131.433 -81)" d="M 2611.5,3312.93 L 2623.5,3312.93 L 2623.5,3590.54 L 2617.5,3600.93 L 2611.5,3590.54 L 2611.5,3312.93 Z " />
<text x="0" y="0" stroke="none" fill="#000000" transform="matrix(0.0666667 0 0 0.0666667 253.084 84.011)" font-style="normal" font-weight="normal" font-size="200px" font-family="Arial" >
N</text>
<path stroke="none" fill="#000000" transform="matrix(0.0666667 0 0 0.0666667 -131.433 -81)" d="M 5897.82,2302.33 L 5885.82,2302.33 L 5885.82,2109.16 L 5897.82,2109.16 L 5897.82,2302.33 Z " />
<path stroke="none" fill="#000000" transform="matrix(0.0666667 0 0 0.0666667 -131.433 -81)" d="M 5845.98,2302.33 L 5833.98,2302.33 L 5833.98,2109.16 L 5845.98,2109.16 L 5845.98,2302.33 Z " />
<path stroke="none" fill="#000000" transform="matrix(0.0666667 0 0 0.0666667 -131.433 -81)" d="M 5794.14,2302.33 L 5782.14,2302.33 L 5782.14,2109.16 L 5794.14,2109.16 L 5794.14,2302.33 Z " />
<text x="0" y="0" stroke="none" fill="#000000" transform="matrix(0.0666667 0 0 0.0666667 194.88 276.4)" font-style="normal" font-weight="normal" font-size="200px" font-family="Arial" >
N</text>
<path stroke="none" fill="#000000" transform="matrix(0.0666667 0 0 0.0666667 -131.433 -81)" d="M 4861.06,5337.19 L 4867.06,5347.58 L 4723.5,5430.46 L 4717.5,5427 L 4723.5,5416.61 L 4861.06,5337.19 Z " />
<path stroke="none" fill="#000000" transform="matrix(0.0666667 0 0 0.0666667 -131.433 -81)" d="M 4723.5,5715 L 4711.5,5715 L 4711.5,5430.46 L 4717.5,5427 L 4723.5,5430.46 L 4723.5,5715 Z " />
<path stroke="none" fill="#000000" transform="matrix(0.0666667 0 0 0.0666667 -131.433 -81)" d="M 4468.08,5289.93 L 4468.08,5276.07 L 4711.5,5416.61 L 4717.5,5427 L 4711.5,5430.46 L 4468.08,5289.93 Z " />
<text x="0" y="0" stroke="none" fill="#000000" transform="matrix(0.0666667 0 0 0.0666667 211.508 286)" font-style="normal" font-weight="normal" font-size="200px" font-family="Arial" >
N</text>
<path stroke="none" fill="#000000" transform="matrix(0.0666667 0 0 0.0666667 -131.433 -81)" d="M 5122.25,5365.75 L 5116.25,5376.15 L 5066.01,5347.14 L 5072.01,5336.75 L 5122.25,5365.75 Z " />
<path stroke="none" fill="#000000" transform="matrix(0.0666667 0 0 0.0666667 -131.433 -81)" d="M 5148.17,5320.86 L 5142.17,5331.25 L 5091.93,5302.25 L 5097.93,5291.86 L 5148.17,5320.86 Z " />
<path stroke="none" fill="#000000" transform="matrix(0.0666667 0 0 0.0666667 -131.433 -81)" d="M 5459.75,5279.54 L 5465.75,5283 L 5465.75,5289.93 L 5316.09,5376.33 L 5310.09,5365.94 L 5459.75,5279.54 Z " />
<path stroke="none" fill="#000000" transform="matrix(0.0666667 0 0 0.0666667 -131.433 -81)" d="M 5459.75,4995 L 5471.75,4995 L 5471.75,5272.61 L 5465.75,5283 L 5459.75,5279.54 L 5459.75,4995 Z " />
<path stroke="none" fill="#000000" transform="matrix(0.0666667 0 0 0.0666667 -131.433 -81)" d="M 5718.16,5421.8 L 5712.16,5432.2 L 5465.75,5289.93 L 5465.75,5283 L 5477.75,5283 L 5718.16,5421.8 Z " />
<path stroke="none" fill="#000000" transform="matrix(0.0666667 0 0 0.0666667 -131.433 -81)" d="M 5715.16,5132.07 L 5715.16,5145.93 L 5477.75,5283 L 5465.75,5283 L 5471.75,5272.61 L 5715.16,5132.07 Z " />
<path stroke="none" fill="#000000" transform="matrix(0.0666667 0 0 0.0666667 -131.433 -81)" d="M 4711.5,5139 L 4723.5,5139 L 4723.5,5416.61 L 4717.5,5427 L 4711.5,5416.61 L 4711.5,5139 Z " />
<path stroke="none" fill="#000000" transform="matrix(0.0666667 0 0 0.0666667 -131.433 -81)" d="M 5958.58,5272.61 L 5964.58,5283 L 5958.58,5286.46 L 5715.16,5145.93 L 5715.16,5132.07 L 5958.58,5272.61 Z " />
<path stroke="none" fill="#000000" transform="matrix(0.0666667 0 0 0.0666667 -131.433 -81)" d="M 5970.58,5571 L 5958.58,5571 L 5958.58,5286.46 L 5964.58,5283 L 5970.58,5286.46 L 5970.58,5571 Z " />
<path stroke="none" fill="#000000" transform="matrix(0.0666667 0 0 0.0666667 -131.433 -81)" d="M 6210.99,5133.8 L 6216.99,5144.2 L 5970.58,5286.46 L 5964.58,5283 L 5970.58,5272.61 L 6210.99,5133.8 Z " />
<path stroke="none" fill="#000000" transform="matrix(0.0666667 0 0 0.0666667 -131.433 -81)" d="M 5958.58,4995 L 5970.58,4995 L 5970.58,5272.61 L 5964.58,5283 L 5958.58,5272.61 L 5958.58,4995 Z " />
<path stroke="none" fill="#000000" transform="matrix(0.0666667 0 0 0.0666667 -131.433 -81)" d="M 4224.67,5430.46 L 4218.67,5427 L 4224.67,5416.61 L 4468.08,5276.07 L 4468.08,5289.93 L 4224.67,5430.46 Z " />
<path stroke="none" fill="#000000" transform="matrix(0.0666667 0 0 0.0666667 -131.433 -81)" d="M 4224.67,5715 L 4212.67,5715 L 4212.67,5430.46 L 4218.67,5427 L 4224.67,5430.46 L 4224.67,5715 Z " />
<path stroke="none" fill="#000000" transform="matrix(0.0666667 0 0 0.0666667 -131.433 -81)" d="M 3966.25,5288.2 L 3972.25,5277.8 L 4212.67,5416.61 L 4218.67,5427 L 4212.67,5430.46 L 3966.25,5288.2 Z " />
<path stroke="none" fill="#000000" transform="matrix(0.0666667 0 0 0.0666667 -131.433 -81)" d="M 4212.67,5139 L 4224.67,5139 L 4224.67,5416.61 L 4218.67,5427 L 4212.67,5416.61 L 4212.67,5139 Z " />
<text x="0" y="0" stroke="none" fill="#000000" transform="matrix(0.0666667 0 0 0.0666667 37.0667 205)" font-style="normal" font-weight="bold" font-size="200px" font-family="Arial" >
AIBN </text>
<text x="0" y="0" stroke="none" fill="#000000" transform="matrix(0.0666667 0 0 0.0666667 73.3622 205)" font-style="normal" font-weight="bold" font-size="200px" font-family="Arial" >
65 </text>
<text x="0" y="0" stroke="none" fill="#000000" transform="matrix(0.0666667 0 0 0.0666667 91.8974 199.767)" font-style="normal" font-weight="bold" font-size="150px" font-family="Arial" >
o</text>
<text x="0" y="0" stroke="none" fill="#000000" transform="matrix(0.0666667 0 0 0.0666667 98.0058 205)" font-style="normal" font-weight="bold" font-size="200px" font-family="Arial" >
C</text>
<text x="0" y="0" stroke="none" fill="#000000" transform="matrix(0.0666667 0 0 0.0666667 33.0667 326)" font-style="normal" font-weight="bold" font-size="200px" font-family="Arial" >
ACHN </text>
<text x="0" y="0" stroke="none" fill="#000000" transform="matrix(0.0666667 0 0 0.0666667 75.2867 326)" font-style="normal" font-weight="bold" font-size="200px" font-family="Arial" >
88 </text>
<text x="0" y="0" stroke="none" fill="#000000" transform="matrix(0.0666667 0 0 0.0666667 93.8219 320.767)" font-style="normal" font-weight="bold" font-size="150px" font-family="Arial" >
o</text>
<text x="0" y="0" stroke="none" fill="#000000" transform="matrix(0.0666667 0 0 0.0666667 99.9303 326)" font-style="normal" font-weight="bold" font-size="200px" font-family="Arial" >
C</text>
<text x="0" y="0" stroke="none" fill="#000000" transform="matrix(0.0666667 0 0 0.0666667 182.067 326)" font-style="normal" font-weight="bold" font-size="200px" font-family="Arial" >
VR-110 </text>
<text x="0" y="0" stroke="none" fill="#000000" transform="matrix(0.0666667 0 0 0.0666667 230.979 326)" font-style="normal" font-weight="bold" font-size="200px" font-family="Arial" >
110 </text>
<text x="0" y="0" stroke="none" fill="#000000" transform="matrix(0.0666667 0 0 0.0666667 256.93 320.767)" font-style="normal" font-weight="bold" font-size="150px" font-family="Arial" >
o</text>
<text x="0" y="0" stroke="none" fill="#000000" transform="matrix(0.0666667 0 0 0.0666667 263.038 326)" font-style="normal" font-weight="bold" font-size="200px" font-family="Arial" >
C</text>
<text x="0" y="0" stroke="none" fill="#000000" transform="matrix(0.0666667 0 0 0.0666667 191.067 205)" font-style="normal" font-weight="bold" font-size="200px" font-family="Arial" >
BPO </text>
<text x="0" y="0" stroke="none" fill="#000000" transform="matrix(0.0666667 0 0 0.0666667 223.664 205)" font-style="normal" font-weight="bold" font-size="200px" font-family="Arial" >
70 </text>
<text x="0" y="0" stroke="none" fill="#000000" transform="matrix(0.0666667 0 0 0.0666667 242.199 199.767)" font-style="normal" font-weight="bold" font-size="150px" font-family="Arial" >
o</text>
<text x="0" y="0" stroke="none" fill="#000000" transform="matrix(0.0666667 0 0 0.0666667 248.308 205)" font-style="normal" font-weight="bold" font-size="200px" font-family="Arial" >
C</text>
<text x="0" y="0" stroke="none" fill="#000000" transform="matrix(0.0666667 0 0 0.0666667 206.509 144.6)" font-style="normal" font-weight="normal" font-size="200px" font-family="Arial" >
O</text>
<path stroke="none" fill="#000000" transform="matrix(0.0666667 0 0 0.0666667 -131.433 -81)" d="M 5051.4,3354.22 L 5057.4,3364.61 L 4897.5,3456.93 L 4897.5,3443.07 L 5051.4,3354.22 Z " />
<text x="0" y="0" stroke="none" fill="#000000" transform="matrix(0.0666667 0 0 0.0666667 189.881 173.4)" font-style="normal" font-weight="normal" font-size="200px" font-family="Arial" >
O</text>
<path stroke="none" fill="#000000" transform="matrix(0.0666667 0 0 0.0666667 -131.433 -81)" d="M 4929.42,3640.83 L 4917.42,3640.83 L 4917.42,3435.04 L 4929.42,3435.04 L 4929.42,3640.83 Z " />
<path stroke="none" fill="#000000" transform="matrix(0.0666667 0 0 0.0666667 -131.433 -81)" d="M 4877.58,3640.83 L 4865.58,3640.83 L 4865.58,3435.04 L 4877.58,3435.04 L 4877.58,3640.83 Z " />
<path stroke="none" fill="#000000" transform="matrix(0.0666667 0 0 0.0666667 -131.433 -81)" d="M 4648.08,3312.93 L 4648.08,3306 L 4654.08,3302.54 L 4897.5,3443.07 L 4897.5,3456.93 L 4648.08,3312.93 Z " />
<text x="0" y="0" stroke="none" fill="#000000" transform="matrix(0.0666667 0 0 0.0666667 223.136 154.2)" font-style="normal" font-weight="normal" font-size="200px" font-family="Arial" >
O</text>
<path stroke="none" fill="#000000" transform="matrix(0.0666667 0 0 0.0666667 -131.433 -81)" d="M 5313.8,3395.42 L 5307.8,3405.82 L 5237.19,3365.05 L 5243.19,3354.65 L 5313.8,3395.42 Z " />
<path stroke="none" fill="#000000" transform="matrix(0.0666667 0 0 0.0666667 -131.433 -81)" d="M 5645.75,3299.07 L 5645.75,3312.93 L 5485.18,3405.63 L 5479.18,3395.24 L 5645.75,3299.07 Z " />
<text x="0" y="0" stroke="none" fill="#000000" transform="matrix(0.0666667 0 0 0.0666667 239.764 125.4)" font-style="normal" font-weight="normal" font-size="200px" font-family="Arial" >
O</text>
<path stroke="none" fill="#000000" transform="matrix(0.0666667 0 0 0.0666667 -131.433 -81)" d="M 5613.83,3129.83 L 5625.83,3129.83 L 5625.83,3320.96 L 5613.83,3320.96 L 5613.83,3129.83 Z " />
<path stroke="none" fill="#000000" transform="matrix(0.0666667 0 0 0.0666667 -131.433 -81)" d="M 5665.67,3129.83 L 5677.67,3129.83 L 5677.67,3320.96 L 5665.67,3320.96 L 5665.67,3129.83 Z " />
<path stroke="none" fill="#000000" transform="matrix(0.0666667 0 0 0.0666667 -131.433 -81)" d="M 5895.16,3443.07 L 5895.16,3450 L 5889.16,3453.46 L 5645.75,3312.93 L 5645.75,3299.07 L 5895.16,3443.07 Z " />
<path stroke="none" fill="#000000" transform="matrix(0.0666667 0 0 0.0666667 -131.433 -81)" d="M 5901.16,3734.54 L 5889.16,3741.46 L 5889.16,3453.46 L 5895.16,3450 L 5901.16,3453.46 L 5901.16,3734.54 Z " />
<path stroke="none" fill="#000000" transform="matrix(0.0666667 0 0 0.0666667 -131.433 -81)" d="M 5953,3708.07 L 5941,3708.07 L 5941,3479.93 L 5953,3479.93 L 5953,3708.07 Z " />
<path stroke="none" fill="#000000" transform="matrix(0.0666667 0 0 0.0666667 -131.433 -81)" d="M 6144.58,3875.07 L 6144.58,3888.93 L 5889.16,3741.46 L 5901.16,3734.54 L 6144.58,3875.07 Z " />
<path stroke="none" fill="#000000" transform="matrix(0.0666667 0 0 0.0666667 -131.433 -81)" d="M 6387.99,3734.54 L 6399.99,3741.46 L 6144.58,3888.93 L 6144.58,3875.07 L 6387.99,3734.54 Z " />
<path stroke="none" fill="#000000" transform="matrix(0.0666667 0 0 0.0666667 -131.433 -81)" d="M 6339.15,3702.87 L 6345.15,3713.27 L 6147.58,3827.34 L 6141.58,3816.94 L 6339.15,3702.87 Z " />
<path stroke="none" fill="#000000" transform="matrix(0.0666667 0 0 0.0666667 -131.433 -81)" d="M 6387.99,3453.46 L 6399.99,3446.54 L 6399.99,3741.46 L 6387.99,3734.54 L 6387.99,3453.46 Z " />
<path stroke="none" fill="#000000" transform="matrix(0.0666667 0 0 0.0666667 -131.433 -81)" d="M 6144.58,3312.93 L 6144.58,3299.07 L 6399.99,3446.54 L 6387.99,3453.46 L 6144.58,3312.93 Z " />
<path stroke="none" fill="#000000" transform="matrix(0.0666667 0 0 0.0666667 -131.433 -81)" d="M 6141.58,3371.06 L 6147.58,3360.66 L 6345.15,3474.73 L 6339.15,3485.13 L 6141.58,3371.06 Z " />
<path stroke="none" fill="#000000" transform="matrix(0.0666667 0 0 0.0666667 -131.433 -81)" d="M 5901.16,3453.46 L 5895.16,3450 L 5895.16,3443.07 L 6144.58,3299.07 L 6144.58,3312.93 L 5901.16,3453.46 Z " />
<path stroke="none" fill="#000000" transform="matrix(0.0666667 0 0 0.0666667 -131.433 -81)" d="M 4642.08,3021.46 L 4654.08,3014.54 L 4654.08,3302.54 L 4648.08,3306 L 4642.08,3302.54 L 4642.08,3021.46 Z " />
<path stroke="none" fill="#000000" transform="matrix(0.0666667 0 0 0.0666667 -131.433 -81)" d="M 4590.24,3047.93 L 4602.24,3047.93 L 4602.24,3276.07 L 4590.24,3276.07 L 4590.24,3047.93 Z " />
<path stroke="none" fill="#000000" transform="matrix(0.0666667 0 0 0.0666667 -131.433 -81)" d="M 4398.67,2880.93 L 4398.67,2867.07 L 4654.08,3014.54 L 4642.08,3021.46 L 4398.67,2880.93 Z " />
<path stroke="none" fill="#000000" transform="matrix(0.0666667 0 0 0.0666667 -131.433 -81)" d="M 4155.25,3021.46 L 4143.25,3014.54 L 4398.67,2867.07 L 4398.67,2880.93 L 4155.25,3021.46 Z " />
<path stroke="none" fill="#000000" transform="matrix(0.0666667 0 0 0.0666667 -131.433 -81)" d="M 4204.09,3053.13 L 4198.09,3042.73 L 4395.67,2928.66 L 4401.67,2939.06 L 4204.09,3053.13 Z " />
<path stroke="none" fill="#000000" transform="matrix(0.0666667 0 0 0.0666667 -131.433 -81)" d="M 4155.25,3302.54 L 4143.25,3309.46 L 4143.25,3014.54 L 4155.25,3021.46 L 4155.25,3302.54 Z " />
<path stroke="none" fill="#000000" transform="matrix(0.0666667 0 0 0.0666667 -131.433 -81)" d="M 4398.67,3443.07 L 4398.67,3456.93 L 4143.25,3309.46 L 4155.25,3302.54 L 4398.67,3443.07 Z " />
<path stroke="none" fill="#000000" transform="matrix(0.0666667 0 0 0.0666667 -131.433 -81)" d="M 4401.67,3384.94 L 4395.67,3395.34 L 4198.09,3281.27 L 4204.09,3270.87 L 4401.67,3384.94 Z " />
<path stroke="none" fill="#000000" transform="matrix(0.0666667 0 0 0.0666667 -131.433 -81)" d="M 4642.08,3302.54 L 4648.08,3306 L 4648.08,3312.93 L 4398.67,3456.93 L 4398.67,3443.07 L 4642.08,3302.54 Z " />
<text x="0" y="0" stroke="none" fill="#000000" transform="matrix(0.0666667 0 0 0.0666667 30.0667 349)" font-style="normal" font-weight="bold" font-size="200px" font-family="Arial" >
Temperatures </text>
<text x="0" y="0" stroke="none" fill="#000000" transform="matrix(0.0666667 0 0 0.0666667 121.955 349)" font-style="normal" font-weight="bold" font-size="200px" font-family="Arial" >
at </text>
<text x="0" y="0" stroke="none" fill="#000000" transform="matrix(0.0666667 0 0 0.0666667 137.515 349)" font-style="normal" font-weight="bold" font-size="200px" font-family="Arial" >
which </text>
<text x="0" y="0" stroke="none" fill="#000000" transform="matrix(0.0666667 0 0 0.0666667 178.999 349)" font-style="normal" font-weight="bold" font-size="200px" font-family="Arial" >
the </text>
<text x="0" y="0" stroke="none" fill="#000000" transform="matrix(0.0666667 0 0 0.0666667 202.703 349)" font-style="normal" font-weight="bold" font-size="200px" font-family="Arial" >
half-life </text>
<text x="0" y="0" stroke="none" fill="#000000" transform="matrix(0.0666667 0 0 0.0666667 253.817 349)" font-style="normal" font-weight="bold" font-size="200px" font-family="Arial" >
of</text>
<text x="0" y="0" stroke="none" fill="#000000" transform="matrix(0.0666667 0 0 0.0666667 30.0667 364.667)" font-style="normal" font-weight="bold" font-size="200px" font-family="Arial" >
 </text>
<text x="0" y="0" stroke="none" fill="#000000" transform="matrix(0.0666667 0 0 0.0666667 33.7711 364.667)" font-style="normal" font-weight="bold" font-size="200px" font-family="Arial" >
the </text>
<text x="0" y="0" stroke="none" fill="#000000" transform="matrix(0.0666667 0 0 0.0666667 57.4755 364.667)" font-style="normal" font-weight="bold" font-size="200px" font-family="Arial" >
initiator </text>
<text x="0" y="0" stroke="none" fill="#000000" transform="matrix(0.0666667 0 0 0.0666667 110.067 364.667)" font-style="normal" font-weight="bold" font-size="200px" font-family="Arial" >
is </text>
<text x="0" y="0" stroke="none" fill="#000000" transform="matrix(0.0666667 0 0 0.0666667 124.891 364.667)" font-style="normal" font-weight="bold" font-size="200px" font-family="Arial" >
10 </text>
<text x="0" y="0" stroke="none" fill="#000000" transform="matrix(0.0666667 0 0 0.0666667 143.426 364.667)" font-style="normal" font-weight="bold" font-size="200px" font-family="Arial" >
h.</text>
</svg>
