<svg xmlns="http://www.w3.org/2000/svg" xmlns:xlink="http://www.w3.org/1999/xlink" version="1.1" width="612" height="792" viewBox="0 0 612 792">
<path transform="matrix(1,0,0,-1,0,792)" stroke-width=".72" stroke-linecap="round" stroke-linejoin="round" fill="none" stroke="#000000" d="M48.48 711.84H62.88"/>
<path transform="matrix(1,0,0,-1,0,792)" stroke-width=".72" stroke-linecap="round" stroke-linejoin="round" fill="none" stroke="#000000" d="M48.48 714.48H62.88"/>
<path transform="matrix(1,0,0,-1,0,792)" stroke-width=".72" stroke-linecap="round" stroke-linejoin="round" fill="none" stroke="#000000" d="M109.2 717.36H123.6"/>
<path transform="matrix(1,0,0,-1,0,792)" stroke-width=".72" stroke-linecap="round" stroke-linejoin="round" fill="none" stroke="#000000" d="M109.2 714.72H122.48"/>
<path transform="matrix(1,0,0,-1,0,792)" stroke-width=".72" stroke-linecap="round" stroke-linejoin="round" fill="none" stroke="#000000" d="M123.6 717.36 130.8 704.89"/>
<path transform="matrix(1,0,0,-1,0,792)" stroke-width=".72" stroke-linecap="round" stroke-linejoin="round" fill="none" stroke="#000000" d="M177.36 711.84H191.76"/>
<path transform="matrix(1,0,0,-1,0,792)" stroke-width=".72" stroke-linecap="round" stroke-linejoin="round" fill="none" stroke="#000000" d="M177.36 714.48H191.76"/>
<path transform="matrix(1,0,0,-1,0,792)" stroke-width=".72" stroke-linecap="round" stroke-linejoin="round" fill="none" stroke="#000000" d="M191.76 713.04 198.96 700.57"/>
<path transform="matrix(1,0,0,-1,0,792)" stroke-width=".72" stroke-linecap="round" stroke-linejoin="round" fill="none" stroke="#000000" d="M191.76 713.04 198.96 725.51"/>
<path transform="matrix(1,0,0,-1,0,792)" stroke-width=".72" stroke-linecap="round" stroke-linejoin="round" fill="none" stroke="#000000" d="M301.92 723.6H316.32"/>
<path transform="matrix(1,0,0,-1,0,792)" stroke-width=".72" stroke-linecap="round" stroke-linejoin="round" fill="none" stroke="#000000" d="M301.92 720.96H315.2"/>
<path transform="matrix(1,0,0,-1,0,792)" stroke-width=".72" stroke-linecap="round" stroke-linejoin="round" fill="none" stroke="#000000" d="M316.32 723.6 323.52 711.13"/>
<path transform="matrix(1,0,0,-1,0,792)" stroke-width=".72" stroke-linecap="round" stroke-linejoin="round" fill="none" stroke="#000000" d="M323.52 711.13 316.32 698.66"/>
<path transform="matrix(1,0,0,-1,0,792)" stroke-width=".72" stroke-linecap="round" stroke-linejoin="round" fill="none" stroke="#000000" d="M323.52 709.93H337.92"/>
<path transform="matrix(1,0,0,-1,0,792)" stroke-width=".72" stroke-linecap="round" stroke-linejoin="round" fill="none" stroke="#000000" d="M323.52 712.57H337.92"/>
<path transform="matrix(1,0,0,-1,0,792)" stroke-width=".72" stroke-linecap="round" stroke-linejoin="round" fill="none" stroke="#000000" d="M242.64 719.28H257.04"/>
<path transform="matrix(1,0,0,-1,0,792)" stroke-width=".72" stroke-linecap="round" stroke-linejoin="round" fill="none" stroke="#000000" d="M242.64 716.64H255.92"/>
<path transform="matrix(1,0,0,-1,0,792)" stroke-width=".72" stroke-linecap="round" stroke-linejoin="round" fill="none" stroke="#000000" d="M257.04 719.28 264.24 706.81"/>
<path transform="matrix(1,0,0,-1,0,792)" stroke-width=".72" stroke-linecap="round" stroke-linejoin="round" fill="none" stroke="#000000" d="M264.24 706.81H278.64"/>
<path transform="matrix(1,0,0,-1,0,792)" stroke-width=".72" stroke-linecap="round" stroke-linejoin="round" fill="none" stroke="#000000" d="M265.36 709.45H278.64"/>
<text xml:space="preserve" transform="matrix(1 0 -0 1 0 792)" font-size="10" font-family="Arial"><tspan y="-609.6" x="78.72 85.92">Cl</tspan></text>
<path transform="matrix(1,0,0,-1,0,792)" stroke-width=".72" stroke-linecap="round" stroke-linejoin="round" fill="none" stroke="#000000" d="M60.96 626.04H75.36"/>
<path transform="matrix(1,0,0,-1,0,792)" stroke-width=".72" stroke-linecap="round" stroke-linejoin="round" fill="none" stroke="#000000" d="M60.96 623.4H74.24"/>
<path transform="matrix(1,0,0,-1,0,792)" stroke-width=".72" stroke-linecap="round" stroke-linejoin="round" fill="none" stroke="#000000" d="M75.36 626.04 79.59 618.72"/>
<text xml:space="preserve" transform="matrix(1 0 -0 1 0 792)" font-size="10" font-family="Arial"><tspan y="-590.64" x="377.04">N</tspan></text>
<path transform="matrix(1,0,0,-1,0,792)" stroke-width=".72" stroke-linecap="round" stroke-linejoin="round" fill="none" stroke="#000000" d="M393.32 616.2V601.8"/>
<path transform="matrix(1,0,0,-1,0,792)" stroke-width=".72" stroke-linecap="round" stroke-linejoin="round" fill="none" stroke="#000000" d="M393.32 616.2 380.85 623.4"/>
<path transform="matrix(1,0,0,-1,0,792)" stroke-width=".72" stroke-linecap="round" stroke-linejoin="round" fill="none" stroke="#000000" d="M391.04 614.47 380.5 620.56"/>
<path transform="matrix(1,0,0,-1,0,792)" stroke-width=".72" stroke-linecap="round" stroke-linejoin="round" fill="none" stroke="#000000" d="M393.32 601.8 385.2 597.11"/>
<path transform="matrix(1,0,0,-1,0,792)" stroke-width=".72" stroke-linecap="round" stroke-linejoin="round" fill="none" stroke="#000000" d="M391.04 603.53 384.51 599.76"/>
<path transform="matrix(1,0,0,-1,0,792)" stroke-width=".72" stroke-linecap="round" stroke-linejoin="round" fill="none" stroke="#000000" d="M380.85 623.4 368.38 616.2"/>
<path transform="matrix(1,0,0,-1,0,792)" stroke-width=".72" stroke-linecap="round" stroke-linejoin="round" fill="none" stroke="#000000" d="M376.08 597.36 368.38 601.8"/>
<path transform="matrix(1,0,0,-1,0,792)" stroke-width=".72" stroke-linecap="round" stroke-linejoin="round" fill="none" stroke="#000000" d="M368.38 616.2V601.8"/>
<path transform="matrix(1,0,0,-1,0,792)" stroke-width=".72" stroke-linecap="round" stroke-linejoin="round" fill="none" stroke="#000000" d="M371.02 615.08V602.92"/>
<path transform="matrix(1,0,0,-1,0,792)" stroke-width=".72" stroke-linecap="round" stroke-linejoin="round" fill="none" stroke="#000000" d="M380.85 623.4V637.8"/>
<path transform="matrix(1,0,0,-1,0,792)" stroke-width=".72" stroke-linecap="round" stroke-linejoin="round" fill="none" stroke="#000000" d="M380.85 637.8 393.32 645"/>
<path transform="matrix(1,0,0,-1,0,792)" stroke-width=".72" stroke-linecap="round" stroke-linejoin="round" fill="none" stroke="#000000" d="M383.14 636.07 394.64 642.71"/>
<text xml:space="preserve" transform="matrix(1 0 -0 1 0 792)" font-size="10" font-family="Arial"><tspan y="-514.56" x="222.48">O</tspan></text>
<text xml:space="preserve" transform="matrix(1 0 -0 1 0 792)" font-size="10" font-family="Arial"><tspan y="-527.04" x="244.08">O</tspan></text>
<text xml:space="preserve" transform="matrix(1 0 -0 1 0 792)" font-size="10" font-family="Arial"><tspan y="-502.08" x="229.92">R</tspan></text>
<path transform="matrix(1,0,0,-1,0,792)" stroke-width=".72" stroke-linecap="round" stroke-linejoin="round" fill="none" stroke="#000000" d="M212.16 543.48H226.56"/>
<path transform="matrix(1,0,0,-1,0,792)" stroke-width=".72" stroke-linecap="round" stroke-linejoin="round" fill="none" stroke="#000000" d="M212.16 540.84H225.44"/>
<path transform="matrix(1,0,0,-1,0,792)" stroke-width=".72" stroke-linecap="round" stroke-linejoin="round" fill="none" stroke="#000000" d="M226.56 543.48 233.76 531.01"/>
<path transform="matrix(1,0,0,-1,0,792)" stroke-width=".72" stroke-linecap="round" stroke-linejoin="round" fill="none" stroke="#000000" d="M233.76 531.01 229.53 523.68"/>
<path transform="matrix(1,0,0,-1,0,792)" stroke-width=".72" stroke-linecap="round" stroke-linejoin="round" fill="none" stroke="#000000" d="M233.76 529.81H243.12"/>
<path transform="matrix(1,0,0,-1,0,792)" stroke-width=".72" stroke-linecap="round" stroke-linejoin="round" fill="none" stroke="#000000" d="M233.76 532.45H243.12"/>
<path transform="matrix(1,0,0,-1,0,792)" stroke-width=".72" stroke-linecap="round" stroke-linejoin="round" fill="none" stroke="#000000" d="M229.55 513.36 230.8 511.2"/>
<text xml:space="preserve" transform="matrix(1 0 -0 1 0 792)" font-size="10" font-family="Arial"><tspan y="-510.24" x="294.96">O</tspan></text>
<text xml:space="preserve" transform="matrix(1 0 -0 1 0 792)" font-size="10" font-family="Arial"><tspan y="-522.72" x="316.56">O</tspan></text>
<text xml:space="preserve" transform="matrix(1 0 -0 1 0 792)" font-size="10" font-family="Arial"><tspan y="-497.76" x="302.4">R</tspan></text>
<path transform="matrix(1,0,0,-1,0,792)" stroke-width=".72" stroke-linecap="round" stroke-linejoin="round" fill="none" stroke="#000000" d="M284.64 537.96H299.04"/>
<path transform="matrix(1,0,0,-1,0,792)" stroke-width=".72" stroke-linecap="round" stroke-linejoin="round" fill="none" stroke="#000000" d="M284.64 540.6H299.04"/>
<path transform="matrix(1,0,0,-1,0,792)" stroke-width=".72" stroke-linecap="round" stroke-linejoin="round" fill="none" stroke="#000000" d="M299.04 539.16 306.24 526.69"/>
<path transform="matrix(1,0,0,-1,0,792)" stroke-width=".72" stroke-linecap="round" stroke-linejoin="round" fill="none" stroke="#000000" d="M306.24 526.69 302.01 519.36"/>
<path transform="matrix(1,0,0,-1,0,792)" stroke-width=".72" stroke-linecap="round" stroke-linejoin="round" fill="none" stroke="#000000" d="M306.24 525.49H315.6"/>
<path transform="matrix(1,0,0,-1,0,792)" stroke-width=".72" stroke-linecap="round" stroke-linejoin="round" fill="none" stroke="#000000" d="M306.24 528.13H315.6"/>
<path transform="matrix(1,0,0,-1,0,792)" stroke-width=".72" stroke-linecap="round" stroke-linejoin="round" fill="none" stroke="#000000" d="M302.03 509.04 303.28 506.88"/>
<path transform="matrix(1,0,0,-1,0,792)" stroke-width=".72" stroke-linecap="round" stroke-linejoin="round" fill="none" stroke="#000000" d="M299.04 539.16 306.24 551.63"/>
<text xml:space="preserve" transform="matrix(1 0 -0 1 0 792)" font-size="10" font-family="Arial"><tspan y="-514.56" x="378.48">N</tspan></text>
<text xml:space="preserve" transform="matrix(1 0 -0 1 0 792)" font-size="10" font-family="Arial"><tspan y="-527.04" x="399.84">O</tspan></text>
<text xml:space="preserve" transform="matrix(1 0 -0 1 0 792)" font-size="10" font-family="Arial"><tspan y="-502.08" x="385.68">R</tspan></text>
<text xml:space="preserve" transform="matrix(1 0 -0 1 0 792)" font-size="8" font-family="Arial"><tspan y="-509.04" x="393.12">1</tspan></text>
<text xml:space="preserve" transform="matrix(1 0 -0 1 0 792)" font-size="10" font-family="Arial"><tspan y="-514.56" x="364.08">R</tspan></text>
<text xml:space="preserve" transform="matrix(1 0 -0 1 0 792)" font-size="8" font-family="Arial"><tspan y="-521.52" x="371.52">2</tspan></text>
<path transform="matrix(1,0,0,-1,0,792)" stroke-width=".72" stroke-linecap="round" stroke-linejoin="round" fill="none" stroke="#000000" d="M367.92 543.48H382.32"/>
<path transform="matrix(1,0,0,-1,0,792)" stroke-width=".72" stroke-linecap="round" stroke-linejoin="round" fill="none" stroke="#000000" d="M367.92 540.84H381.2"/>
<path transform="matrix(1,0,0,-1,0,792)" stroke-width=".72" stroke-linecap="round" stroke-linejoin="round" fill="none" stroke="#000000" d="M382.32 543.48 389.52 531.01"/>
<path transform="matrix(1,0,0,-1,0,792)" stroke-width=".72" stroke-linecap="round" stroke-linejoin="round" fill="none" stroke="#000000" d="M389.52 531.01 385.29 523.68"/>
<path transform="matrix(1,0,0,-1,0,792)" stroke-width=".72" stroke-linecap="round" stroke-linejoin="round" fill="none" stroke="#000000" d="M389.52 529.81H398.88"/>
<path transform="matrix(1,0,0,-1,0,792)" stroke-width=".72" stroke-linecap="round" stroke-linejoin="round" fill="none" stroke="#000000" d="M389.52 532.45H398.88"/>
<path transform="matrix(1,0,0,-1,0,792)" stroke-width=".72" stroke-linecap="round" stroke-linejoin="round" fill="none" stroke="#000000" d="M385.31 513.36 386.56 511.2"/>
<path transform="matrix(1,0,0,-1,0,792)" stroke-width=".72" stroke-linecap="round" stroke-linejoin="round" fill="none" stroke="#000000" d="M377.52 518.54H372.24"/>
<text xml:space="preserve" transform="matrix(1 0 -0 1 0 792)" font-size="10" font-family="Arial"><tspan y="-510.24" x="466.56">N</tspan></text>
<text xml:space="preserve" transform="matrix(1 0 -0 1 0 792)" font-size="10" font-family="Arial"><tspan y="-522.72" x="488.16">O</tspan></text>
<text xml:space="preserve" transform="matrix(1 0 -0 1 0 792)" font-size="10" font-family="Arial"><tspan y="-497.76" x="473.76">R</tspan></text>
<text xml:space="preserve" transform="matrix(1 0 -0 1 0 792)" font-size="8" font-family="Arial"><tspan y="-504.72" x="481.2">1</tspan></text>
<text xml:space="preserve" transform="matrix(1 0 -0 1 0 792)" font-size="10" font-family="Arial"><tspan y="-510.24" x="452.16">R</tspan></text>
<text xml:space="preserve" transform="matrix(1 0 -0 1 0 792)" font-size="8" font-family="Arial"><tspan y="-517.2" x="459.6">2</tspan></text>
<path transform="matrix(1,0,0,-1,0,792)" stroke-width=".72" stroke-linecap="round" stroke-linejoin="round" fill="none" stroke="#000000" d="M456 537.96H470.4"/>
<path transform="matrix(1,0,0,-1,0,792)" stroke-width=".72" stroke-linecap="round" stroke-linejoin="round" fill="none" stroke="#000000" d="M456 540.6H470.4"/>
<path transform="matrix(1,0,0,-1,0,792)" stroke-width=".72" stroke-linecap="round" stroke-linejoin="round" fill="none" stroke="#000000" d="M470.4 539.16 477.6 526.69"/>
<path transform="matrix(1,0,0,-1,0,792)" stroke-width=".72" stroke-linecap="round" stroke-linejoin="round" fill="none" stroke="#000000" d="M477.6 526.69 473.37 519.36"/>
<path transform="matrix(1,0,0,-1,0,792)" stroke-width=".72" stroke-linecap="round" stroke-linejoin="round" fill="none" stroke="#000000" d="M477.6 525.49H487.2"/>
<path transform="matrix(1,0,0,-1,0,792)" stroke-width=".72" stroke-linecap="round" stroke-linejoin="round" fill="none" stroke="#000000" d="M477.6 528.13H487.2"/>
<path transform="matrix(1,0,0,-1,0,792)" stroke-width=".72" stroke-linecap="round" stroke-linejoin="round" fill="none" stroke="#000000" d="M473.39 509.04 474.64 506.88"/>
<path transform="matrix(1,0,0,-1,0,792)" stroke-width=".72" stroke-linecap="round" stroke-linejoin="round" fill="none" stroke="#000000" d="M470.4 539.16 477.6 551.63"/>
<path transform="matrix(1,0,0,-1,0,792)" stroke-width=".72" stroke-linecap="round" stroke-linejoin="round" fill="none" stroke="#000000" d="M465.6 514.22H460.32"/>
<text xml:space="preserve" transform="matrix(1 0 -0 1 0 792)" font-size="10" font-family="Arial"><tspan y="-609.6" x="151.44 158.64">CN</tspan></text>
<path transform="matrix(1,0,0,-1,0,792)" stroke-width=".72" stroke-linecap="round" stroke-linejoin="round" fill="none" stroke="#000000" d="M133.68 626.04H148.08"/>
<path transform="matrix(1,0,0,-1,0,792)" stroke-width=".72" stroke-linecap="round" stroke-linejoin="round" fill="none" stroke="#000000" d="M133.68 623.4H146.96"/>
<path transform="matrix(1,0,0,-1,0,792)" stroke-width=".72" stroke-linecap="round" stroke-linejoin="round" fill="none" stroke="#000000" d="M148.08 626.04 152.31 618.72"/>
<text xml:space="preserve" transform="matrix(1 0 -0 1 0 792)" font-size="10" font-family="Arial"><tspan y="-508.32" x="57.6">O</tspan></text>
<text xml:space="preserve" transform="matrix(1 0 -0 1 0 792)" font-size="10" font-family="Arial"><tspan y="-508.32" x="50.4">H</tspan></text>
<text xml:space="preserve" transform="matrix(1 0 -0 1 0 792)" font-size="10" font-family="Arial"><tspan y="-520.8" x="79.2">O</tspan></text>
<path transform="matrix(1,0,0,-1,0,792)" stroke-width=".72" stroke-linecap="round" stroke-linejoin="round" fill="none" stroke="#000000" d="M47.28 537.24H61.68"/>
<path transform="matrix(1,0,0,-1,0,792)" stroke-width=".72" stroke-linecap="round" stroke-linejoin="round" fill="none" stroke="#000000" d="M47.28 534.6H60.56"/>
<path transform="matrix(1,0,0,-1,0,792)" stroke-width=".72" stroke-linecap="round" stroke-linejoin="round" fill="none" stroke="#000000" d="M61.68 537.24 68.88 524.77"/>
<path transform="matrix(1,0,0,-1,0,792)" stroke-width=".72" stroke-linecap="round" stroke-linejoin="round" fill="none" stroke="#000000" d="M68.88 524.77 64.65 517.44"/>
<path transform="matrix(1,0,0,-1,0,792)" stroke-width=".72" stroke-linecap="round" stroke-linejoin="round" fill="none" stroke="#000000" d="M68.88 523.57H78.24"/>
<path transform="matrix(1,0,0,-1,0,792)" stroke-width=".72" stroke-linecap="round" stroke-linejoin="round" fill="none" stroke="#000000" d="M68.88 526.21H78.24"/>
<text xml:space="preserve" transform="matrix(1 0 -0 1 0 792)" font-size="10" font-family="Arial"><tspan y="-504" x="145.92">O</tspan></text>
<text xml:space="preserve" transform="matrix(1 0 -0 1 0 792)" font-size="10" font-family="Arial"><tspan y="-504" x="138.72">H</tspan></text>
<text xml:space="preserve" transform="matrix(1 0 -0 1 0 792)" font-size="10" font-family="Arial"><tspan y="-516.48" x="167.52">O</tspan></text>
<path transform="matrix(1,0,0,-1,0,792)" stroke-width=".72" stroke-linecap="round" stroke-linejoin="round" fill="none" stroke="#000000" d="M135.6 531.72H150"/>
<path transform="matrix(1,0,0,-1,0,792)" stroke-width=".72" stroke-linecap="round" stroke-linejoin="round" fill="none" stroke="#000000" d="M135.6 534.36H150"/>
<path transform="matrix(1,0,0,-1,0,792)" stroke-width=".72" stroke-linecap="round" stroke-linejoin="round" fill="none" stroke="#000000" d="M150 532.92 157.2 520.45"/>
<path transform="matrix(1,0,0,-1,0,792)" stroke-width=".72" stroke-linecap="round" stroke-linejoin="round" fill="none" stroke="#000000" d="M157.2 520.45 152.97 513.12"/>
<path transform="matrix(1,0,0,-1,0,792)" stroke-width=".72" stroke-linecap="round" stroke-linejoin="round" fill="none" stroke="#000000" d="M157.2 519.25H166.56"/>
<path transform="matrix(1,0,0,-1,0,792)" stroke-width=".72" stroke-linecap="round" stroke-linejoin="round" fill="none" stroke="#000000" d="M157.2 521.89H166.56"/>
<path transform="matrix(1,0,0,-1,0,792)" stroke-width=".72" stroke-linecap="round" stroke-linejoin="round" fill="none" stroke="#000000" d="M150 532.92 157.2 545.39"/>
<text xml:space="preserve" transform="matrix(1 0 -0 1 0 792)" font-size="10" font-family="Arial"><tspan y="-615.84" x="228.96">O</tspan></text>
<text xml:space="preserve" transform="matrix(1 0 -0 1 0 792)" font-size="10" font-family="Arial"><tspan y="-603.36" x="222">R</tspan></text>
<path transform="matrix(1,0,0,-1,0,792)" stroke-width=".72" stroke-linecap="round" stroke-linejoin="round" fill="none" stroke="#000000" d="M211.44 632.28H225.84"/>
<path transform="matrix(1,0,0,-1,0,792)" stroke-width=".72" stroke-linecap="round" stroke-linejoin="round" fill="none" stroke="#000000" d="M211.44 629.64H224.72"/>
<path transform="matrix(1,0,0,-1,0,792)" stroke-width=".72" stroke-linecap="round" stroke-linejoin="round" fill="none" stroke="#000000" d="M225.84 632.28 230.07 624.96"/>
<path transform="matrix(1,0,0,-1,0,792)" stroke-width=".72" stroke-linecap="round" stroke-linejoin="round" fill="none" stroke="#000000" d="M230.06 614.64 228.81 612.48"/>
<text xml:space="preserve" transform="matrix(1 0 -0 1 0 792)" font-size="10" font-family="Arial"><tspan y="-619.68" x="306.24">O</tspan></text>
<text xml:space="preserve" transform="matrix(1 0 -0 1 0 792)" font-size="10" font-family="Arial"><tspan y="-607.2" x="284.64">O</tspan></text>
<path transform="matrix(1,0,0,-1,0,792)" stroke-width=".72" stroke-linecap="round" stroke-linejoin="round" fill="none" stroke="#000000" d="M288.72 636.12H303.12"/>
<path transform="matrix(1,0,0,-1,0,792)" stroke-width=".72" stroke-linecap="round" stroke-linejoin="round" fill="none" stroke="#000000" d="M288.72 633.48H302"/>
<path transform="matrix(1,0,0,-1,0,792)" stroke-width=".72" stroke-linecap="round" stroke-linejoin="round" fill="none" stroke="#000000" d="M303.12 636.12 307.35 628.8"/>
<path transform="matrix(1,0,0,-1,0,792)" stroke-width=".72" stroke-linecap="round" stroke-linejoin="round" fill="none" stroke="#000000" d="M307.34 618.48 303.12 611.18"/>
<path transform="matrix(1,0,0,-1,0,792)" stroke-width=".72" stroke-linecap="round" stroke-linejoin="round" fill="none" stroke="#000000" d="M303.12 612.38H293.52"/>
<path transform="matrix(1,0,0,-1,0,792)" stroke-width=".72" stroke-linecap="round" stroke-linejoin="round" fill="none" stroke="#000000" d="M303.12 609.74H293.52"/>
<path transform="matrix(1,0,0,-1,0,792)" stroke-width=".72" stroke-linecap="round" stroke-linejoin="round" fill="none" stroke="#000000" d="M303.12 611.18 310.32 598.71"/>
<text xml:space="preserve" transform="matrix(1 0 -0 1 0 792)" font-size="10" font-family="Arial"><tspan y="-613.68" x="473.76">N</tspan></text>
<text xml:space="preserve" transform="matrix(1 0 -0 1 0 792)" font-size="10" font-family="Arial"><tspan y="-609.6" x="498.96">O</tspan></text>
<path transform="matrix(1,0,0,-1,0,792)" stroke-width=".72" stroke-linecap="round" stroke-linejoin="round" fill="none" stroke="#000000" d="M465.82 609.22 472.8 614.28"/>
<path transform="matrix(1,0,0,-1,0,792)" stroke-width=".72" stroke-linecap="round" stroke-linejoin="round" fill="none" stroke="#000000" d="M465.82 609.22 470.26 595.52"/>
<path transform="matrix(1,0,0,-1,0,792)" stroke-width=".72" stroke-linecap="round" stroke-linejoin="round" fill="none" stroke="#000000" d="M481.92 614.44 489.12 609.2"/>
<path transform="matrix(1,0,0,-1,0,792)" stroke-width=".72" stroke-linecap="round" stroke-linejoin="round" fill="none" stroke="#000000" d="M470.26 595.52 484.66 595.51"/>
<path transform="matrix(1,0,0,-1,0,792)" stroke-width=".72" stroke-linecap="round" stroke-linejoin="round" fill="none" stroke="#000000" d="M489.12 609.2 484.66 595.51"/>
<path transform="matrix(1,0,0,-1,0,792)" stroke-width=".72" stroke-linecap="round" stroke-linejoin="round" fill="none" stroke="#000000" d="M477.48 622.8 477.49 632.07"/>
<path transform="matrix(1,0,0,-1,0,792)" stroke-width=".72" stroke-linecap="round" stroke-linejoin="round" fill="none" stroke="#000000" d="M477.49 632.07 489.97 639.26"/>
<path transform="matrix(1,0,0,-1,0,792)" stroke-width=".72" stroke-linecap="round" stroke-linejoin="round" fill="none" stroke="#000000" d="M479.78 630.34 491.29 636.97"/>
<path transform="matrix(1,0,0,-1,0,792)" stroke-width=".72" stroke-linecap="round" stroke-linejoin="round" fill="none" stroke="#000000" d="M489.49 608.06 498 610.81"/>
<path transform="matrix(1,0,0,-1,0,792)" stroke-width=".72" stroke-linecap="round" stroke-linejoin="round" fill="none" stroke="#000000" d="M488.68 610.57 498 613.59"/>
<path transform="matrix(1,0,0,-1,0,792)" stroke-width=".72" stroke-linecap="round" stroke-linejoin="round" fill="none" stroke="#000000" d="M387.29 709.44V695.04"/>
<path transform="matrix(1,0,0,-1,0,792)" stroke-width=".72" stroke-linecap="round" stroke-linejoin="round" fill="none" stroke="#000000" d="M387.29 709.44 374.82 716.64"/>
<path transform="matrix(1,0,0,-1,0,792)" stroke-width=".72" stroke-linecap="round" stroke-linejoin="round" fill="none" stroke="#000000" d="M385 707.71 374.46 713.8"/>
<path transform="matrix(1,0,0,-1,0,792)" stroke-width=".72" stroke-linecap="round" stroke-linejoin="round" fill="none" stroke="#000000" d="M387.29 695.04 374.82 687.84"/>
<path transform="matrix(1,0,0,-1,0,792)" stroke-width=".72" stroke-linecap="round" stroke-linejoin="round" fill="none" stroke="#000000" d="M385 696.77 374.46 690.68"/>
<path transform="matrix(1,0,0,-1,0,792)" stroke-width=".72" stroke-linecap="round" stroke-linejoin="round" fill="none" stroke="#000000" d="M374.82 716.64 362.35 709.44"/>
<path transform="matrix(1,0,0,-1,0,792)" stroke-width=".72" stroke-linecap="round" stroke-linejoin="round" fill="none" stroke="#000000" d="M374.82 687.84 362.35 695.04"/>
<path transform="matrix(1,0,0,-1,0,792)" stroke-width=".72" stroke-linecap="round" stroke-linejoin="round" fill="none" stroke="#000000" d="M362.35 709.44V695.04"/>
<path transform="matrix(1,0,0,-1,0,792)" stroke-width=".72" stroke-linecap="round" stroke-linejoin="round" fill="none" stroke="#000000" d="M364.99 708.32V696.16"/>
<path transform="matrix(1,0,0,-1,0,792)" stroke-width=".72" stroke-linecap="round" stroke-linejoin="round" fill="none" stroke="#000000" d="M374.82 716.64V731.04"/>
<path transform="matrix(1,0,0,-1,0,792)" stroke-width=".72" stroke-linecap="round" stroke-linejoin="round" fill="none" stroke="#000000" d="M374.82 731.04 387.29 738.24"/>
<path transform="matrix(1,0,0,-1,0,792)" stroke-width=".72" stroke-linecap="round" stroke-linejoin="round" fill="none" stroke="#000000" d="M377.1 729.31 388.61 735.95"/>
<text xml:space="preserve" transform="matrix(1 0 -0 1 0 792)" font-size="10" font-family="Arial"><tspan y="-721.44" x="437.76">F</tspan></text>
<text xml:space="preserve" transform="matrix(1 0 -0 1 0 792)" font-size="10" font-family="Arial"><tspan y="-696.72" x="437.52">F</tspan></text>
<text xml:space="preserve" transform="matrix(1 0 -0 1 0 792)" font-size="10" font-family="Arial"><tspan y="-696.72" x="466.32">F</tspan></text>
<text xml:space="preserve" transform="matrix(1 0 -0 1 0 792)" font-size="10" font-family="Arial"><tspan y="-721.44" x="466.56">F</tspan></text>
<path transform="matrix(1,0,0,-1,0,792)" stroke-width=".72" stroke-linecap="round" stroke-linejoin="round" fill="none" stroke="#000000" d="M448.08 711.84H462.48"/>
<path transform="matrix(1,0,0,-1,0,792)" stroke-width=".72" stroke-linecap="round" stroke-linejoin="round" fill="none" stroke="#000000" d="M448.08 714.48H462.48"/>
<path transform="matrix(1,0,0,-1,0,792)" stroke-width=".72" stroke-linecap="round" stroke-linejoin="round" fill="none" stroke="#000000" d="M448.08 713.04 443.92 720.24"/>
<path transform="matrix(1,0,0,-1,0,792)" stroke-width=".72" stroke-linecap="round" stroke-linejoin="round" fill="none" stroke="#000000" d="M448.08 713.04 443.92 705.84"/>
<path transform="matrix(1,0,0,-1,0,792)" stroke-width=".72" stroke-linecap="round" stroke-linejoin="round" fill="none" stroke="#000000" d="M462.48 713.04 466.64 705.84"/>
<path transform="matrix(1,0,0,-1,0,792)" stroke-width=".72" stroke-linecap="round" stroke-linejoin="round" fill="none" stroke="#000000" d="M462.48 713.04 466.64 720.24"/>
<text xml:space="preserve" transform="matrix(1 0 -0 1 0 792)" font-size="12" font-family="Arial"><tspan y="-776.16" x="36.96 45.6 52.32 59.04 63.120004 69.840007 75.840007 82.560009 89.28001 92.64001 99.36001 102.72001 105.600009 111.600009 118.32001 121.68001 131.28002 138.00002 144.72002 151.44002 161.04003 167.76003 171.84003 177.84003 181.20003 189.60002 192.48003 195.84003 202.56003 205.92003 211.92003 214.80004 221.52004 227.52004 230.40004 233.76004 240.48004 244.56005 247.92005 253.92005 260.64006 267.36006 273.36006 276.72004 279.60005 282.96003 289.68003 293.04 299.76 306.48 309.84 315.84 318.72 325.44 331.44 334.32 337.68 344.4 348.47999 355.19999 361.91999 368.63999 374.63999">Representative monomers with vinyl or substituted vinyl groups </tspan></text>
<text xml:space="preserve" transform="matrix(1 0 -0 1 0 792)" font-size="12" font-family="Arial"><tspan y="-743.04" x="36.96 44.879999 48.239999 54.96 60.96 63.84 70.56 77.28 84 87.36 90.72 94.08 102 106.08 112.8 119.520008 125.520008 128.40001 135.12001 141.84001 148.56002 151.92002 155.28002 158.64002 162.00002 168.00002 174.72002 181.44002 188.16002 191.52002 197.52002 200.40003 207.12003 213.84003 220.56003 223.92003 227.28003 230.64003 238.56003 245.28003 248.64003 255.36003 262.08003 264.96003 271.68003 278.40003 285.12004 288.48 291.84 295.19999 298.55998 304.55998 311.27998 317.99998 322.07997 328.79997 335.51997 342.23997 345.59996 348.95994 352.31993 360.23994 363.5999 369.5999 373.6799 380.3999 387.1199 393.8399 397.1999 400.55989 403.91987 411.35987 418.07987 421.43986 425.51985 432.23985 435.59983 438.47984 445.19984 451.91984 455.99983 462.71983 469.43983 472.7998 479.5198 485.5198 488.3998 495.1198 501.8398">Ethylene   Propylene   Isobutylene   Butadiene   Isoprene   Styrene   Tetrafluoroethylene</tspan></text>
<text xml:space="preserve" transform="matrix(1 0 -0 1 0 792)" font-size="12" font-family="Arial"><tspan y="-653.28" x="36.48 44.4 47.280004 54.000005 60.000005 62.880006 66.240009 72.240009 78.96001 81.840007 88.560009 92.64001 95.520008 102.240009 108.96001 112.32001 115.68001 119.04001 126.96001 132.96 137.04001 143.04001 145.92002 152.64002 159.36002 162.24002 165.60002 169.68003 172.56003 175.44004 182.16004 185.52004 188.88004 192.24004 200.16004 203.04004 209.76004 215.76004 218.64005 222.00005 228.72005 232.08005 238.80005 245.52005 249.60005 255.60005 258.96006 262.32005 265.68003 273.60005 276.48005 283.20005 289.20005 292.08006 295.44004 302.16004 308.16004 314.88005 318.24003 324.96003 328.32 335.04 338.4 341.75999 345.11997 351.83998 355.91996 363.83998 366.71998 373.43998 379.43998 382.31999 385.67997 392.39997 398.39997 402.47996 405.35997 412.07997 414.95997 421.67997 428.39997 431.75996 435.11994">Vinyl chloride   Acrylonitrile   Vinyl ethers   Vinyl acetate   4-Vinyl pyridine   </tspan></text>
<text xml:space="preserve" transform="matrix(1 0 -0 1 0 792)" font-size="12" font-family="Arial,Italic" font-style="italic"><tspan y="-653.28" x="438.48">N</tspan></text>
<text xml:space="preserve" transform="matrix(1 0 -0 1 0 792)" font-size="12" font-family="Arial"><tspan y="-653.28" x="447.12">-</tspan></text>
<text xml:space="preserve" transform="matrix(1 0 -0 1 0 792)" font-size="12" font-family="Arial"><tspan y="-653.28" x="451.2 457.2 460.08003 466.80003 472.80003 475.68003 479.04 485.76 491.76 495.84 499.91999 506.63999 509.52 512.39999 519.11996 525.8399 532.5599 539.27987">vinyl pyrrolidone </tspan></text>
<text xml:space="preserve" transform="matrix(1 0 -0 1 0 792)" font-size="12" font-family="Arial"><tspan y="-561.12" x="36.72 44.64 50.64 54.72 60.72 63.600004 66.48 72.48 75.840007 82.560009 88.560009 91.44 98.16 101.520008 104.880008 108.240009 118.08 124.8 128.16 134.88 141.6 147.6 151.68001 157.68001 160.56002 163.44002 169.44002 172.80002 179.52002 185.52002 188.40003 195.12003 198.48003 201.84003 205.20003 213.12003 219.12003 223.20003 229.20003 232.08003 238.80004 242.16004 248.88004 254.88004 258.24003 261.6 264.96 274.8 281.52 284.87998 291.59999 298.31999 304.31999 308.39997 314.39997 317.27998 323.99998 327.35997 334.07997 340.07997 343.43995 346.79994 350.1599 358.07994 364.07994 368.1599 374.1599 377.03993 383.75993 393.35993 396.23994 402.95994 409.67994 415.67994 419.03993 422.3999 425.7599 435.59989 442.3199 445.67988 452.39988 459.11988 465.11988 469.19987 475.19987 478.07987 484.79988 494.39988 497.27989 503.99989 510.71989 516.71987 520.07986">Acrylic acid   Methacrylic acid   Acrylates   Methacrylates   Acrylamides   Methacrylamides  </tspan></text>
</svg>
