<svg width="389.401" height="103.901" viewBox="0 0 389.401 103.901" xmlns="http://www.w3.org/2000/svg"><g id="svgGroup" stroke-linecap="round" fill-rule="evenodd" font-size="9pt" stroke="#000" stroke-width="0.25mm" fill="#000" style="stroke:#000;stroke-width:0.25mm;fill:#000"><path d="M 22.701 47.6 L 21.701 47.8 A 10.962 10.962 0 0 1 21.459 46.883 Q 21.301 46.147 21.301 45.55 Q 21.301 44.663 21.388 43.558 A 35.958 35.958 0 0 1 21.401 43.4 Q 21.478 42.481 21.701 41.035 A 78.462 78.462 0 0 1 21.851 40.1 Q 22.201 38 23.201 35.95 Q 24.201 33.9 25.501 32 Q 26.801 30.1 28.851 28.5 A 24.587 24.587 0 0 1 32.936 25.929 A 27.373 27.373 0 0 1 33.401 25.7 Q 38.204 23.344 44.896 23.123 A 42.584 42.584 0 0 1 46.301 23.1 A 37.63 37.63 0 0 1 58.205 24.906 A 31.424 31.424 0 0 1 71.251 33.25 A 34.646 34.646 0 0 1 80.562 53.474 A 46.986 46.986 0 0 1 80.901 59.2 A 35.787 35.787 0 0 1 77.882 74.046 A 34.76 34.76 0 0 1 69.501 85.45 A 39.347 39.347 0 0 1 47.204 95.501 A 53.156 53.156 0 0 1 40.601 95.9 A 48.392 48.392 0 0 1 26.544 93.945 A 38.996 38.996 0 0 1 11.551 85.5 A 34.25 34.25 0 0 1 0.046 60.551 A 46.102 46.102 0 0 1 0.001 58.5 Q 0.001 47.8 5.001 39.5 Q 10.001 31.2 19.301 26.5 L 19.901 27.4 Q 13.401 31.7 10.551 39.8 A 51.243 51.243 0 0 0 7.705 56.291 A 57.742 57.742 0 0 0 7.701 57 Q 7.701 71.127 14.13 80.084 A 29.431 29.431 0 0 0 16.901 83.4 A 30.84 30.84 0 0 0 37.847 92.817 A 41.545 41.545 0 0 0 40.501 92.9 Q 54.901 92.9 64.051 83.35 Q 73.201 73.8 73.201 58.2 Q 73.201 44.7 65.951 35.4 A 23.59 23.59 0 0 0 49.096 26.284 A 34.17 34.17 0 0 0 45.501 26.1 A 28.654 28.654 0 0 0 39.047 26.802 A 24.053 24.053 0 0 0 34.801 28.2 A 21.597 21.597 0 0 0 28.318 32.356 A 19.113 19.113 0 0 0 23.301 40.4 A 20.746 20.746 0 0 0 22.829 42.106 Q 22.501 43.547 22.501 44.7 A 26.834 26.834 0 0 0 22.521 45.757 Q 22.562 46.809 22.692 47.551 A 7.925 7.925 0 0 0 22.701 47.6 Z M 178.201 0 L 178.201 1 A 26.728 26.728 0 0 0 170.566 2.415 A 24.941 24.941 0 0 0 169.401 2.85 Q 165.739 4.324 163.234 6.196 A 18.593 18.593 0 0 0 162.651 6.65 A 23.332 23.332 0 0 0 160.119 9.061 Q 158.956 10.337 157.824 11.898 A 39.651 39.651 0 0 0 157.501 12.35 A 93.175 93.175 0 0 0 155.918 14.667 Q 155.228 15.713 154.661 16.646 A 40.178 40.178 0 0 0 153.651 18.4 Q 152.368 20.775 150.679 24.415 A 202.022 202.022 0 0 0 150.501 24.8 L 122.701 85.6 A 138.172 138.172 0 0 0 121.444 88.43 Q 119.632 92.645 119.164 94.717 A 5.601 5.601 0 0 0 119.001 95.9 L 118.101 95.9 L 90.001 31.8 A 12.483 12.483 0 0 0 88.633 29.394 A 9.154 9.154 0 0 0 86.151 27.05 Q 83.701 25.5 81.201 25.5 L 80.401 25.5 L 80.401 24.5 L 102.901 24.5 L 102.901 25.5 L 102.001 25.5 Q 99.001 25.5 98.001 28.3 Q 97.814 28.862 97.802 29.601 A 6.252 6.252 0 0 0 97.801 29.7 A 3.327 3.327 0 0 0 97.86 30.297 Q 97.973 30.913 98.301 31.7 L 119.201 84.1 L 144.001 24.8 A 63.339 63.339 0 0 1 148.412 16.177 Q 152.96 8.837 158.801 4.9 A 24.623 24.623 0 0 1 163.264 2.535 A 32.138 32.138 0 0 1 166.901 1.3 A 50.013 50.013 0 0 1 169.663 0.614 Q 172.257 0.054 174.144 0.005 A 13.683 13.683 0 0 1 174.501 0 L 178.201 0 Z M 159.201 93.5 L 160.501 93.5 A 6.059 6.059 0 0 0 164.893 91.707 A 7.395 7.395 0 0 0 164.951 91.65 Q 166.801 89.8 166.901 87.2 L 166.901 31.2 A 5.102 5.102 0 0 0 165.286 27.412 A 6.696 6.696 0 0 0 165.001 27.15 Q 163.101 25.5 160.501 25.5 L 159.301 25.5 L 159.201 24.5 L 179.501 24.5 A 37.143 37.143 0 0 0 183.109 24.315 A 48.437 48.437 0 0 0 186.251 23.9 Q 189.003 23.448 190.533 22.995 A 9.997 9.997 0 0 0 191.401 22.7 L 191.401 35.3 L 190.401 35.3 L 190.401 33.5 Q 190.401 31.1 188.751 29.4 Q 187.101 27.7 184.801 27.6 L 173.401 27.6 L 173.401 58.5 L 192.401 58.5 Q 194.401 58.4 195.801 57 A 4.723 4.723 0 0 0 197.2 53.635 A 6.2 6.2 0 0 0 197.201 53.5 L 197.201 52.1 L 198.201 52.1 L 198.201 67.9 L 197.201 67.9 L 197.201 66.4 Q 197.201 64.4 195.851 63 Q 194.501 61.6 192.501 61.5 L 173.401 61.5 L 173.401 91.4 L 194.701 91.4 Q 199.677 91.4 203.07 89.908 A 11.95 11.95 0 0 0 206.001 88.1 A 18.879 18.879 0 0 0 209.268 84.452 Q 211.079 81.855 212.501 78.3 L 213.501 78.3 L 207.701 94.5 L 159.201 94.5 L 159.201 93.5 Z M 274.801 93.5 L 276.101 93.5 A 6.059 6.059 0 0 0 280.493 91.707 A 7.395 7.395 0 0 0 280.551 91.65 Q 282.401 89.8 282.501 87.2 L 282.501 31.2 A 5.102 5.102 0 0 0 280.886 27.412 A 6.696 6.696 0 0 0 280.601 27.15 Q 278.701 25.5 276.101 25.5 L 274.901 25.5 L 274.801 24.5 L 295.101 24.5 A 37.143 37.143 0 0 0 298.709 24.315 A 48.437 48.437 0 0 0 301.851 23.9 Q 304.603 23.448 306.133 22.995 A 9.997 9.997 0 0 0 307.001 22.7 L 307.001 35.3 L 306.001 35.3 L 306.001 33.5 Q 306.001 31.1 304.351 29.4 Q 302.701 27.7 300.401 27.6 L 289.001 27.6 L 289.001 58.5 L 308.001 58.5 Q 310.001 58.4 311.401 57 A 4.723 4.723 0 0 0 312.8 53.635 A 6.2 6.2 0 0 0 312.801 53.5 L 312.801 52.1 L 313.801 52.1 L 313.801 67.9 L 312.801 67.9 L 312.801 66.4 Q 312.801 64.4 311.451 63 Q 310.101 61.6 308.101 61.5 L 289.001 61.5 L 289.001 91.4 L 310.301 91.4 Q 315.277 91.4 318.67 89.908 A 11.95 11.95 0 0 0 321.601 88.1 A 18.879 18.879 0 0 0 324.868 84.452 Q 326.679 81.855 328.101 78.3 L 329.101 78.3 L 323.301 94.5 L 274.801 94.5 L 274.801 93.5 Z M 224.901 67.2 L 225.801 67.9 A 25.609 25.609 0 0 0 221.744 75.435 A 22.709 22.709 0 0 0 220.601 82.6 Q 220.601 92 228.501 97.2 Q 233.101 100.3 238.951 100.3 A 25.093 25.093 0 0 0 243.934 99.828 A 18.794 18.794 0 0 0 249.101 98 A 16.083 16.083 0 0 0 257.648 87.135 A 22.922 22.922 0 0 0 258.201 83.9 Q 258.301 83.2 258.301 82.5 Q 258.301 79.147 256.617 75.301 A 27.333 27.333 0 0 0 256.251 74.5 A 19.639 19.639 0 0 0 253.138 69.884 A 27.101 27.101 0 0 0 249.601 66.6 L 231.601 52.4 A 15.669 15.669 0 0 1 227.568 47.858 Q 225.703 44.609 225.701 40.508 A 16.075 16.075 0 0 1 225.701 40.5 A 18.752 18.752 0 0 1 226.913 33.666 A 17.143 17.143 0 0 1 230.401 28.15 A 15.554 15.554 0 0 1 239.702 23.35 A 22.215 22.215 0 0 1 243.101 23.1 Q 245.334 23.1 247.784 23.412 A 49.039 49.039 0 0 1 251.801 24.1 L 255.801 24.1 L 256.001 36.4 L 255.001 36.4 A 11.286 11.286 0 0 0 254.427 32.963 A 9.013 9.013 0 0 0 251.551 28.85 A 11.963 11.963 0 0 0 245.75 26.3 A 16.298 16.298 0 0 0 243.151 26.1 A 12.533 12.533 0 0 0 238.646 26.886 A 11.349 11.349 0 0 0 234.701 29.45 Q 231.301 32.8 231.301 38.05 Q 231.301 43.3 235.701 46.8 L 254.201 61.4 Q 265.201 70.1 265.201 82.4 A 20.348 20.348 0 0 1 258.785 97.365 A 27.425 27.425 0 0 1 257.901 98.2 A 21.388 21.388 0 0 1 248.105 103.164 A 31.507 31.507 0 0 1 241.101 103.9 A 29.198 29.198 0 0 1 234.873 103.262 A 23.441 23.441 0 0 1 229.701 101.5 A 18.998 18.998 0 0 1 219.107 89.435 A 24.96 24.96 0 0 1 218.401 86.5 A 15.148 15.148 0 0 1 218.221 85.21 Q 218.154 84.53 218.124 83.741 A 34.521 34.521 0 0 1 218.101 82.45 A 11.926 11.926 0 0 1 218.234 80.766 Q 218.491 78.983 219.24 76.565 A 48.645 48.645 0 0 1 219.501 75.75 Q 220.715 72.064 223.884 68.341 A 34.703 34.703 0 0 1 224.901 67.2 Z M 324.401 43.9 L 323.601 44.4 Q 320.501 40.7 320.501 37.05 A 13.147 13.147 0 0 1 320.875 33.848 A 10.352 10.352 0 0 1 322.201 30.75 Q 323.901 28.1 327.701 26.25 A 18.346 18.346 0 0 1 333.68 24.546 A 22.904 22.904 0 0 1 336.301 24.4 L 377.301 24.4 Q 380.401 24.4 384.151 23.8 Q 387.9 23.2 389.4 22.6 L 389.401 35.2 L 388.401 35.1 L 388.401 33.4 Q 388.401 31 386.701 29.25 Q 385.001 27.5 382.701 27.4 L 363.701 27.4 L 363.701 87.3 A 6.722 6.722 0 0 0 364.237 89.838 Q 365.012 91.603 366.901 92.7 Q 368.401 93.5 370.101 93.5 L 371.401 93.5 L 371.401 94.5 L 349.501 94.5 L 349.501 93.5 L 350.801 93.5 Q 353.401 93.5 355.251 91.7 Q 357.101 89.9 357.201 87.4 L 357.201 27.4 L 336.301 27.4 A 19.781 19.781 0 0 0 331.939 27.849 Q 327.232 28.914 324.701 32.5 A 10.296 10.296 0 0 0 323.322 35.035 A 8.424 8.424 0 0 0 322.801 37.95 A 11.37 11.37 0 0 0 323.307 41.235 A 15.667 15.667 0 0 0 324.401 43.9 Z" vector-effect="non-scaling-stroke"/></g></svg>