<?xml version="1.0" standalone="no" ?>
<!DOCTYPE svg PUBLIC "-//W3C//DTD SVG 1.1//EN" "http://www.w3.org/Graphics/SVG/1.1/DTD/svg11.dtd">
<svg width="400px" height="183px" viewBox="0 0 400 183" style="background-color: #ffffff00" xmlns="http://www.w3.org/2000/svg" xmlns:xlink="http://www.w3.org/1999/xlink" version="1.1" >
<path stroke="none" fill="#ffffff" transform="matrix(0.0666667 0 0 0.0666667 -70.4333 -241)" d="M 2797.88,5271.91 L 2757.88,5295 L 2717.88,5271.91 L 2717.88,4671.91 L 2797.88,4718.09 L 2797.88,5271.91 Z " />
<path stroke="none" fill="#ffffff" transform="matrix(0.0666667 0 0 0.0666667 -70.4333 -241)" d="M 2869.88,5236.11 L 2849.88,5236.11 L 2849.88,4753.89 L 2869.88,4753.89 L 2869.88,5236.11 Z " />
<path stroke="none" fill="#ffffff" transform="matrix(0.0666667 0 0 0.0666667 -70.4333 -241)" d="M 3277.5,5548.81 L 3277.5,5641.19 L 2757.88,5341.19 L 2757.88,5295 L 2797.88,5271.91 L 3277.5,5548.81 Z " />
<path stroke="none" fill="#ffffff" transform="matrix(0.0666667 0 0 0.0666667 -70.4333 -241)" d="M 3757.12,5271.91 L 3837.12,5318.09 L 3277.5,5641.19 L 3277.5,5548.81 L 3757.12,5271.91 Z " />
<path stroke="none" fill="#ffffff" transform="matrix(0.0666667 0 0 0.0666667 -70.4333 -241)" d="M 3690.12,5227.45 L 3700.12,5244.77 L 3282.5,5485.88 L 3272.5,5468.56 L 3690.12,5227.45 Z " />
<path stroke="none" fill="#ffffff" transform="matrix(0.0666667 0 0 0.0666667 -70.4333 -241)" d="M 3757.12,4718.09 L 3797.12,4695 L 3837.12,4718.09 L 3837.12,5318.09 L 3757.12,5271.91 L 3757.12,4718.09 Z " />
<path stroke="none" fill="#ffffff" transform="matrix(0.0666667 0 0 0.0666667 -70.4333 -241)" d="M 3277.5,4441.19 L 3277.5,4348.81 L 3797.12,4648.81 L 3797.12,4695 L 3757.12,4718.09 L 3277.5,4441.19 Z " />
<path stroke="none" fill="#ffffff" transform="matrix(0.0666667 0 0 0.0666667 -70.4333 -241)" d="M 3272.5,4521.44 L 3282.5,4504.12 L 3700.12,4745.23 L 3690.12,4762.55 L 3272.5,4521.44 Z " />
<path stroke="none" fill="#ffffff" transform="matrix(0.0666667 0 0 0.0666667 -70.4333 -241)" d="M 2797.88,4718.09 L 2717.88,4671.91 L 3277.5,4348.81 L 3277.5,4441.19 L 2797.88,4718.09 Z " />
<path stroke="none" fill="#ffffff" transform="matrix(0.0666667 0 0 0.0666667 -70.4333 -241)" d="M 4276.73,4371.91 L 4316.73,4395 L 4316.73,4441.19 L 3837.12,4718.09 L 3797.12,4695 L 3797.12,4648.81 L 4276.73,4371.91 Z " />
<text x="0" y="0" stroke="none" fill="#ffffff" transform="matrix(0.0666667 0 0 0.0666667 244.73 79.3667)" font-style="normal" font-weight="bold" font-size="280px" font-family="Arial" >
O</text>
<path stroke="none" fill="#ffffff" transform="matrix(0.0666667 0 0 0.0666667 -70.4333 -241)" d="M 4738.72,4592.45 L 4698.72,4661.73 L 4316.73,4441.19 L 4316.73,4395 L 4356.73,4371.91 L 4738.72,4592.45 Z " />
<text x="0" y="0" stroke="none" fill="#ffffff" transform="matrix(0.0666667 0 0 0.0666667 210.089 19.3667)" font-style="normal" font-weight="bold" font-size="280px" font-family="Arial" >
O</text>
<path stroke="none" fill="#ffffff" transform="matrix(0.0666667 0 0 0.0666667 -70.4333 -241)" d="M 4276.73,3947.67 L 4356.73,3947.67 L 4356.73,4371.91 L 4316.73,4395 L 4276.73,4371.91 L 4276.73,3947.67 Z " />
<path stroke="none" fill="#ffffff" transform="matrix(0.0666667 0 0 0.0666667 -70.4333 -241)" d="M 4204.73,3947.67 L 4224.73,3947.67 L 4224.73,4336.11 L 4204.73,4336.11 L 4204.73,3947.67 Z " />
<path stroke="none" fill="#ffffff" transform="matrix(0.0666667 0 0 0.0666667 -70.4333 -241)" d="M 2278.27,5618.09 L 2238.27,5595 L 2238.27,5548.81 L 2717.88,5271.91 L 2757.88,5295 L 2757.88,5341.19 L 2278.27,5618.09 Z " />
<text x="0" y="0" stroke="none" fill="#ffffff" transform="matrix(0.0666667 0 0 0.0666667 36.8839 119.367)" font-style="normal" font-weight="bold" font-size="280px" font-family="Arial" >
O</text>
<path stroke="none" fill="#ffffff" transform="matrix(0.0666667 0 0 0.0666667 -70.4333 -241)" d="M 1826.42,5403.41 L 1866.42,5334.13 L 2238.27,5548.81 L 2238.27,5595 L 2198.27,5618.09 L 1826.42,5403.41 Z " />
<text x="0" y="0" stroke="none" fill="#ffffff" transform="matrix(0.0666667 0 0 0.0666667 71.5249 179.367)" font-style="normal" font-weight="bold" font-size="280px" font-family="Arial" >
O</text>
<path stroke="none" fill="#ffffff" transform="matrix(0.0666667 0 0 0.0666667 -70.4333 -241)" d="M 2278.27,6062.67 L 2198.27,6062.67 L 2198.27,5618.09 L 2238.27,5595 L 2278.27,5618.09 L 2278.27,6062.67 Z " />
<path stroke="none" fill="#ffffff" transform="matrix(0.0666667 0 0 0.0666667 -70.4333 -241)" d="M 2350.27,6062.67 L 2330.27,6062.67 L 2330.27,5653.89 L 2350.27,5653.89 L 2350.27,6062.67 Z " />
<path stroke="none" fill="#ffffff" transform="matrix(0.0666667 0 0 0.0666667 -70.4333 -241)" d="M 5355.96,4348.81 L 5355.96,4441.19 L 4974.68,4661.32 L 4934.68,4592.04 L 5355.96,4348.81 Z " />
<path stroke="none" fill="#ffffff" transform="matrix(0.0666667 0 0 0.0666667 -70.4333 -241)" d="M 5875.58,4648.81 L 5875.58,4741.19 L 5355.96,4441.19 L 5355.96,4348.81 L 5875.58,4648.81 Z " />
<text x="0" y="0" stroke="none" fill="#ffffff" transform="matrix(0.0666667 0 0 0.0666667 348.653 59.3667)" font-style="normal" font-weight="bold" font-size="280px" font-family="Arial" >
O</text>
<path stroke="none" fill="#ffffff" transform="matrix(0.0666667 0 0 0.0666667 -70.4333 -241)" d="M 6248.1,4433.74 L 6288.1,4503.02 L 5875.58,4741.19 L 5875.58,4648.81 L 6248.1,4433.74 Z " />
<text x="0" y="0" stroke="none" fill="#ffffff" transform="matrix(0.0666667 0 0 0.0666667 383.814 79.3667)" font-style="normal" font-weight="bold" font-size="280px" font-family="Arial" >
H</text>
<path stroke="none" fill="#ffffff" transform="matrix(0.0666667 0 0 0.0666667 -70.4333 -241)" d="M 6801.62,4583.46 L 6761.62,4652.75 L 6502.96,4503.41 L 6542.96,4434.13 L 6801.62,4583.46 Z " />
<text x="0" y="0" stroke="none" fill="#ffffff" transform="matrix(0.0666667 0 0 0.0666667 2.76237 139.367)" font-style="normal" font-weight="bold" font-size="280px" font-family="Arial" >
H</text>
<path stroke="none" fill="#ffffff" transform="matrix(0.0666667 0 0 0.0666667 -70.4333 -241)" d="M 1351.32,5553.27 L 1311.32,5483.99 L 1571.56,5333.74 L 1611.56,5403.02 L 1351.32,5553.27 Z " />
<path stroke="#ffffff" stroke-width="80" fill="none" transform="matrix(0.0666667 0 0 0.0666667 -70.4333 -241)" d="M 6507.23,4116.21 L 6637.5,4116.21 " />
<path stroke="#ffffff" stroke-width="80" fill="none" transform="matrix(0.0666667 0 0 0.0666667 -70.4333 -241)" d="M 6637.5,4116.21 L 6637.5,5914.63 " />
<path stroke="#ffffff" stroke-width="80" fill="none" transform="matrix(0.0666667 0 0 0.0666667 -70.4333 -241)" d="M 6637.5,5914.63 L 6507.23,5914.63 " />
<text x="0" y="0" stroke="none" fill="#ffffff" transform="matrix(0.0666667 0 0 0.0666667 378.067 158.248)" font-style="normal" font-weight="bold" font-size="240px" font-family="Arial" >
n</text>
<path stroke="#ffffff" stroke-width="80" fill="none" transform="matrix(0.0666667 0 0 0.0666667 -70.4333 -241)" d="M 1546.63,5888.19 L 1416.36,5888.19 " />
<path stroke="#ffffff" stroke-width="80" fill="none" transform="matrix(0.0666667 0 0 0.0666667 -70.4333 -241)" d="M 1416.36,5888.19 L 1416.36,4089.76 " />
<path stroke="#ffffff" stroke-width="80" fill="none" transform="matrix(0.0666667 0 0 0.0666667 -70.4333 -241)" d="M 1416.36,4089.76 L 1546.63,4089.76 " />
</svg>
